<svg width="56" height="57" viewBox="0 0 56 57" fill="none" xmlns="http://www.w3.org/2000/svg">
<g filter="url(#filter0_d_487_566)">
<rect x="5.5" y="2.5" width="45" height="45" rx="12" fill="#4FD1C5"/>
</g>
<path d="M20.9467 18.3182H35.0092C35.1734 18.3181 35.3375 18.3285 35.5005 18.3494C35.4453 17.9617 35.3121 17.5892 35.109 17.2543C34.9059 16.9195 34.6371 16.6292 34.3188 16.4011C34.0006 16.1729 33.6394 16.0116 33.257 15.9268C32.8747 15.842 32.4792 15.8356 32.0943 15.9078L20.5292 17.8822H20.516C19.7901 18.021 19.1445 18.4318 18.7112 19.0305C19.364 18.5662 20.1455 18.3171 20.9467 18.3182Z" fill="white"/>
<path d="M35.0093 19.3749H20.9468C20.2011 19.3757 19.4862 19.6723 18.9589 20.1995C18.4317 20.7268 18.1351 21.4417 18.1343 22.1874V30.6249C18.1351 31.3705 18.4317 32.0854 18.9589 32.6127C19.4862 33.14 20.2011 33.4366 20.9468 33.4374H35.0093C35.7549 33.4366 36.4698 33.14 36.9971 32.6127C37.5244 32.0854 37.821 31.3705 37.8218 30.6249V22.1874C37.821 21.4417 37.5244 20.7268 36.9971 20.1995C36.4698 19.6723 35.7549 19.3757 35.0093 19.3749ZM32.9219 27.8124C32.6437 27.8124 32.3719 27.7299 32.1406 27.5754C31.9093 27.4209 31.7291 27.2012 31.6227 26.9443C31.5162 26.6873 31.4884 26.4046 31.5426 26.1318C31.5969 25.859 31.7308 25.6084 31.9275 25.4118C32.1242 25.2151 32.3747 25.0812 32.6475 25.0269C32.9203 24.9726 33.2031 25.0005 33.46 25.1069C33.717 25.2134 33.9366 25.3936 34.0911 25.6249C34.2456 25.8561 34.3281 26.128 34.3281 26.4061C34.3281 26.7791 34.18 27.1368 33.9162 27.4005C33.6525 27.6642 33.2948 27.8124 32.9219 27.8124Z" fill="white"/>
<path d="M18.1562 25.1514V20.7788C18.1562 19.8265 18.6836 18.23 20.5139 17.8841C22.0674 17.5928 23.6055 17.5928 23.6055 17.5928C23.6055 17.5928 24.6162 18.2959 23.7812 18.2959C22.9463 18.2959 22.9683 19.3726 23.7812 19.3726C24.5942 19.3726 23.7812 20.4053 23.7812 20.4053L20.5073 24.1187L18.1562 25.1514Z" fill="white"/>
<defs>
<filter id="filter0_d_487_566" x="-4.76837e-07" y="0.5" width="56" height="56" filterUnits="userSpaceOnUse" color-interpolation-filters="sRGB">
<feFlood flood-opacity="0" result="BackgroundImageFix"/>
<feColorMatrix in="SourceAlpha" type="matrix" values="0 0 0 0 0 0 0 0 0 0 0 0 0 0 0 0 0 0 127 0" result="hardAlpha"/>
<feOffset dy="3.5"/>
<feGaussianBlur stdDeviation="2.75"/>
<feColorMatrix type="matrix" values="0 0 0 0 0 0 0 0 0 0 0 0 0 0 0 0 0 0 0.02 0"/>
<feBlend mode="normal" in2="BackgroundImageFix" result="effect1_dropShadow_487_566"/>
<feBlend mode="normal" in="SourceGraphic" in2="effect1_dropShadow_487_566" result="shape"/>
</filter>
</defs>
</svg>
