<svg width="56" height="57" viewBox="0 0 56 57" fill="none" xmlns="http://www.w3.org/2000/svg">
<g filter="url(#filter0_d_487_539)">
<rect x="5.5" y="2.5" width="45" height="45" rx="12" fill="#4FD1C5"/>
</g>
<path d="M24.4844 33.4374C25.261 33.4374 25.8906 32.8078 25.8906 32.0311C25.8906 31.2545 25.261 30.6249 24.4844 30.6249C23.7077 30.6249 23.0781 31.2545 23.0781 32.0311C23.0781 32.8078 23.7077 33.4374 24.4844 33.4374Z" fill="white"/>
<path d="M34.3281 33.4374C35.1048 33.4374 35.7344 32.8078 35.7344 32.0311C35.7344 31.2545 35.1048 30.6249 34.3281 30.6249C33.5515 30.6249 32.9219 31.2545 32.9219 32.0311C32.9219 32.8078 33.5515 33.4374 34.3281 33.4374Z" fill="white"/>
<path d="M36.8242 19.058C36.7254 18.9371 36.601 18.8398 36.4599 18.7731C36.3188 18.7063 36.1647 18.6718 36.0086 18.6721H22.6338L22.3645 17.1437C22.3357 16.9809 22.2506 16.8334 22.1239 16.7272C21.9972 16.6209 21.8372 16.5627 21.6719 16.5627H18.8594C18.6729 16.5627 18.4941 16.6368 18.3622 16.7687C18.2303 16.9005 18.1562 17.0794 18.1562 17.2659C18.1562 17.4523 18.2303 17.6312 18.3622 17.7631C18.4941 17.8949 18.6729 17.969 18.8594 17.969H21.0821L23.0887 29.3412C23.1174 29.504 23.2026 29.6514 23.3292 29.7577C23.4559 29.8639 23.6159 29.9221 23.7812 29.9221H35.0312C35.2177 29.9221 35.3966 29.848 35.5284 29.7162C35.6603 29.5843 35.7344 29.4055 35.7344 29.219C35.7344 29.0325 35.6603 28.8537 35.5284 28.7218C35.3966 28.5899 35.2177 28.5159 35.0312 28.5159H24.371L24.1231 27.1096H34.743C34.9868 27.1093 35.223 27.0248 35.4117 26.8703C35.6004 26.7158 35.7299 26.5009 35.7783 26.2619L37.0439 19.9338C37.0744 19.7806 37.0705 19.6226 37.0325 19.4712C36.9945 19.3197 36.9234 19.1786 36.8242 19.058Z" fill="white"/>
<defs>
<filter id="filter0_d_487_539" x="-4.76837e-07" y="0.5" width="56" height="56" filterUnits="userSpaceOnUse" color-interpolation-filters="sRGB">
<feFlood flood-opacity="0" result="BackgroundImageFix"/>
<feColorMatrix in="SourceAlpha" type="matrix" values="0 0 0 0 0 0 0 0 0 0 0 0 0 0 0 0 0 0 127 0" result="hardAlpha"/>
<feOffset dy="3.5"/>
<feGaussianBlur stdDeviation="2.75"/>
<feColorMatrix type="matrix" values="0 0 0 0 0 0 0 0 0 0 0 0 0 0 0 0 0 0 0.02 0"/>
<feBlend mode="normal" in2="BackgroundImageFix" result="effect1_dropShadow_487_539"/>
<feBlend mode="normal" in="SourceGraphic" in2="effect1_dropShadow_487_539" result="shape"/>
</filter>
</defs>
</svg>
