<svg width="56" height="57" viewBox="0 0 56 57" fill="none" xmlns="http://www.w3.org/2000/svg">
<g filter="url(#filter0_d_487_548)">
<rect x="5.5" y="2.5" width="45" height="45" rx="12" fill="#4FD1C5"/>
</g>
<path d="M29.4062 23.6057H35.5586C35.6021 23.6057 35.6438 23.623 35.6746 23.6538C35.7054 23.6845 35.7227 23.7263 35.7227 23.7698V32.0315C35.7227 32.7743 35.4276 33.4867 34.9023 34.0119C34.3771 34.5372 33.6647 34.8323 32.9219 34.8323H23.0781C22.3353 34.8323 21.6229 34.5372 21.0977 34.0119C20.5724 33.4867 20.2773 32.7743 20.2773 32.0315V17.969C20.2773 17.2262 20.5724 16.5138 21.0977 15.9885C21.6229 15.4633 22.3353 15.1682 23.0781 15.1682H27.1211C27.1646 15.1682 27.2063 15.1855 27.2371 15.2163C27.2679 15.247 27.2852 15.2888 27.2852 15.3323V21.4846C27.2852 22.0472 27.5086 22.5867 27.9064 22.9845C28.3042 23.3822 28.8437 23.6057 29.4062 23.6057ZM24.4844 30.637H31.5156C31.7052 30.637 31.887 30.5616 32.0211 30.4276C32.1552 30.2935 32.2305 30.1117 32.2305 29.9221C32.2305 29.7325 32.1552 29.5507 32.0211 29.4166C31.887 29.2826 31.7052 29.2073 31.5156 29.2073H24.4844C24.2948 29.2073 24.113 29.2826 23.9789 29.4166C23.8448 29.5507 23.7695 29.7325 23.7695 29.9221C23.7695 30.1117 23.8448 30.2935 23.9789 30.4276C24.113 30.5616 24.2948 30.637 24.4844 30.637ZM24.4844 27.1213H31.5156C31.7052 27.1213 31.887 27.046 32.0211 26.912C32.1552 26.7779 32.2305 26.5961 32.2305 26.4065C32.2305 26.2169 32.1552 26.0351 32.0211 25.901C31.887 25.767 31.7052 25.6916 31.5156 25.6916H24.4844C24.2948 25.6916 24.113 25.767 23.9789 25.901C23.8448 26.0351 23.7695 26.2169 23.7695 26.4065C23.7695 26.5961 23.8448 26.7779 23.9789 26.912C24.113 27.046 24.2948 27.1213 24.4844 27.1213Z" fill="white" stroke="#4FD1C5" stroke-width="0.0234375"/>
<path d="M28.8447 15.7275L35.1644 22.0473L28.8447 15.7275ZM28.8447 15.7275C28.8447 15.7275 28.8447 15.7275 28.8447 15.7275M28.8447 15.7275L28.8447 15.7275M28.8447 15.7275C28.8341 15.7169 28.8205 15.7097 28.8058 15.7068C28.7911 15.7039 28.7758 15.7054 28.7619 15.7112C28.748 15.7169 28.7362 15.7266 28.7278 15.7391C28.7194 15.7515 28.7149 15.7662 28.7148 15.7812V21.4857C28.7148 21.6691 28.7877 21.845 28.9174 21.9746C29.047 22.1043 29.2229 22.1771 29.4063 22.1771H35.1107C35.1258 22.1771 35.1404 22.1726 35.1529 22.1642C35.1654 22.1558 35.1751 22.1439 35.1808 22.1301C35.1866 22.1162 35.1881 22.1009 35.1851 22.0862C35.1822 22.0715 35.175 22.0579 35.1645 22.0473L28.8447 15.7275Z" fill="white" stroke="#4FD1C5" stroke-width="0.0234375"/>
<defs>
<filter id="filter0_d_487_548" x="-4.76837e-07" y="0.5" width="56" height="56" filterUnits="userSpaceOnUse" color-interpolation-filters="sRGB">
<feFlood flood-opacity="0" result="BackgroundImageFix"/>
<feColorMatrix in="SourceAlpha" type="matrix" values="0 0 0 0 0 0 0 0 0 0 0 0 0 0 0 0 0 0 127 0" result="hardAlpha"/>
<feOffset dy="3.5"/>
<feGaussianBlur stdDeviation="2.75"/>
<feColorMatrix type="matrix" values="0 0 0 0 0 0 0 0 0 0 0 0 0 0 0 0 0 0 0.02 0"/>
<feBlend mode="normal" in2="BackgroundImageFix" result="effect1_dropShadow_487_548"/>
<feBlend mode="normal" in="SourceGraphic" in2="effect1_dropShadow_487_548" result="shape"/>
</filter>
</defs>
</svg>
