<svg width="24" height="17" viewBox="0 0 24 17" fill="none" xmlns="http://www.w3.org/2000/svg">
<g clip-path="url(#clip0_487_696)">
<path d="M4.90703 0.943176H19.2408C21.414 0.943176 23.171 2.18483 23.171 3.72055V13.4577C23.171 14.9934 21.414 16.2351 19.2408 16.2351H4.90703C2.73385 16.2351 0.976807 14.9934 0.976807 13.4577V3.72055C0.976807 2.18483 2.73385 0.943176 4.90703 0.943176Z" fill="#470137"/>
<path d="M12.6474 4.96222L9.87311 8.19705L12.8323 11.6279C12.8508 11.6541 12.8601 11.6802 12.8508 11.7063C12.8416 11.7325 12.8046 11.7129 12.7491 11.7194H10.6314C10.4835 11.7194 10.3817 11.7129 10.317 11.6475C10.1228 11.3731 9.91935 11.1051 9.72515 10.8307C9.53095 10.5627 9.31826 10.2882 9.09631 10.0072C8.87437 9.72624 8.65243 9.44523 8.43049 9.15769H8.41199C8.21779 9.4387 8.0051 9.71971 7.7924 10.0007C7.57971 10.2817 7.36702 10.5627 7.16357 10.8372C6.95087 11.1117 6.73818 11.3927 6.52549 11.6606C6.48849 11.726 6.41451 11.7325 6.31279 11.7325H4.27832C4.24133 11.7325 4.21359 11.7456 4.21359 11.7129C4.20434 11.6867 4.21359 11.6606 4.23208 11.641L7.10808 8.30814L4.30606 4.95569C4.27832 4.92955 4.26907 4.90341 4.28757 4.89034C4.30606 4.87073 4.34305 4.8642 4.38005 4.8642H6.47925C6.52549 4.8642 6.57172 4.87073 6.60871 4.87727C6.6457 4.89034 6.67345 4.90994 6.70119 4.93608C6.87689 5.21709 7.08034 5.49809 7.29304 5.7791C7.51498 6.0601 7.72767 6.33457 7.95886 6.60904C8.1808 6.88351 8.38425 7.15798 8.57845 7.43899H8.59694C8.79114 7.15145 8.99459 6.87044 9.19804 6.59597C9.40148 6.3215 9.61418 6.04703 9.82687 5.77256C10.0396 5.49809 10.243 5.21709 10.4465 4.94915C10.4557 4.92301 10.4742 4.89687 10.5019 4.8838C10.5389 4.87073 10.5759 4.8642 10.6222 4.87073H12.5734C12.6196 4.8642 12.6659 4.8838 12.6751 4.91648C12.6844 4.92301 12.6659 4.94915 12.6474 4.96222Z" fill="#FF61F6"/>
<path d="M16.9197 11.8566C16.2354 11.8632 15.5511 11.7651 14.9315 11.5626C14.3489 11.373 13.868 11.0594 13.5351 10.6738C13.1929 10.2752 13.0265 9.7785 13.0265 9.18382C13.0172 8.70022 13.1929 8.22317 13.5351 7.80493C13.8865 7.38015 14.3951 7.02726 15.0055 6.792C15.6528 6.53714 16.4296 6.41297 17.3451 6.41297C17.3913 6.41297 17.4561 6.41297 17.5393 6.41951C17.6225 6.42604 17.715 6.42604 17.826 6.43258V4.36752C17.826 4.32177 17.8537 4.29563 17.9184 4.29563H19.7957C19.8419 4.2891 19.8789 4.31524 19.8882 4.34138C19.8882 4.34791 19.8882 4.35445 19.8882 4.35445V10.5758C19.8882 10.6934 19.8974 10.8241 19.9067 10.9679C19.9252 11.1051 19.9344 11.2358 19.9437 11.3469C19.9437 11.3926 19.9159 11.4319 19.8512 11.4515C19.3703 11.5952 18.8617 11.6998 18.3438 11.7651C17.8722 11.824 17.4006 11.8566 16.9197 11.8566ZM17.826 10.5496V7.67423C17.7427 7.66116 17.6595 7.64809 17.5763 7.64155C17.4746 7.63502 17.3728 7.62848 17.2711 7.62848C16.9105 7.62848 16.5498 7.68076 16.2261 7.79839C15.9117 7.90949 15.6435 8.07286 15.4401 8.28198C15.2366 8.4911 15.1349 8.77211 15.1349 9.11193C15.1257 9.34066 15.1812 9.56938 15.2921 9.78504C15.3846 9.96148 15.5233 10.1183 15.7083 10.249C15.884 10.3667 16.0967 10.4581 16.3371 10.5104C16.5868 10.5692 16.8457 10.5954 17.1047 10.5954C17.2434 10.5954 17.3728 10.5888 17.4931 10.5823C17.6133 10.5888 17.715 10.5758 17.826 10.5496Z" fill="#FF61F6"/>
</g>
<defs>
<clipPath id="clip0_487_696">
<rect width="22.1942" height="15.2919" fill="white" transform="translate(0.976807 0.943176)"/>
</clipPath>
</defs>
</svg>
