<svg width="24" height="16" viewBox="0 0 24 16" fill="none" xmlns="http://www.w3.org/2000/svg">
<path d="M7.01946 7.41678C6.91289 7.32283 6.75554 7.2612 6.58185 7.2454C6.40816 7.2296 6.23227 7.26091 6.09268 7.33247C6.01056 7.37621 5.94432 7.43204 5.899 7.49569L0.208677 15.1832C0.128083 15.2922 0.114845 15.4183 0.171873 15.5338C0.228901 15.6493 0.351529 15.7449 0.512801 15.7994C0.607068 15.8316 0.711286 15.8482 0.816926 15.848H8.74497C8.87195 15.8502 8.99712 15.8273 9.10516 15.7822C9.21319 15.7371 9.2994 15.6717 9.35322 15.594C11.0643 13.2073 10.0271 9.57863 7.01946 7.41678Z" fill="url(#paint0_linear_487_678)"/>
<path d="M11.2019 0.42096C9.78332 1.89507 8.95661 3.59289 8.80284 5.34784C8.64906 7.1028 9.1735 8.85461 10.3247 10.4314L14.1471 15.5939C14.2035 15.6702 14.2903 15.7344 14.3978 15.7792C14.5052 15.8241 14.629 15.8479 14.7553 15.8479H22.6818C22.7712 15.8481 22.8597 15.8363 22.9423 15.8132C23.025 15.7902 23.1 15.7564 23.1633 15.7137C23.2265 15.671 23.2766 15.6203 23.3107 15.5645C23.3448 15.5087 23.3623 15.4489 23.362 15.3885C23.3621 15.3173 23.338 15.2471 23.2916 15.1832L12.3591 0.418798C12.3072 0.344816 12.2253 0.282301 12.1229 0.238525C12.0205 0.194748 11.9017 0.171509 11.7805 0.171509C11.6593 0.171509 11.5405 0.194748 11.4381 0.238525C11.3357 0.282301 11.2538 0.344816 11.2019 0.418798V0.42096Z" fill="#2684FF"/>
<defs>
<linearGradient id="paint0_linear_487_678" x1="10.1519" y1="8.59175" x2="6.98039" y2="16.7262" gradientUnits="userSpaceOnUse">
<stop stop-color="#0052CC"/>
<stop offset="0.92" stop-color="#2684FF"/>
</linearGradient>
</defs>
</svg>
