<svg width="24" height="17" viewBox="0 0 24 17" fill="none" xmlns="http://www.w3.org/2000/svg">
<g clip-path="url(#clip0_487_624)">
<path d="M11.7496 0.804443C5.33589 0.804443 0.136963 4.31528 0.136963 8.64645C0.136963 12.9776 5.33589 16.4885 11.7496 16.4885C18.1632 16.4885 23.3621 12.9776 23.3621 8.64645C23.3621 4.31582 18.1632 0.804978 11.7496 0.804443ZM17.0753 12.1145C16.8669 12.3456 16.4207 12.4179 16.08 12.2772C13.3534 11.1518 9.9207 10.8976 5.87868 11.521C5.48882 11.5815 5.10054 11.4167 5.0118 11.1534C4.92225 10.8902 5.16552 10.628 5.55617 10.568C9.97934 9.88576 13.7741 10.1795 16.8352 11.4424C17.1759 11.5842 17.2845 11.8844 17.0753 12.1145ZM18.496 9.97994C18.2337 10.2678 17.6759 10.3577 17.2504 10.1811C14.1299 8.88564 9.37078 8.51053 5.67899 9.26717C5.20039 9.3651 4.69484 9.18262 4.54904 8.85995C4.40482 8.53675 4.67503 8.19589 5.15284 8.09743C9.36998 7.23323 14.6133 7.65168 18.1973 9.13928C18.6236 9.3164 18.7583 9.69258 18.496 9.97994ZM18.6181 7.75603C14.8748 6.25505 8.70041 6.11699 5.12669 6.84902C4.553 6.96674 3.94602 6.74789 3.77249 6.36047C3.59895 5.97305 3.92225 5.56316 4.49674 5.44543C8.59898 4.60478 15.4176 4.76692 19.7266 6.49424C20.2425 6.70133 20.4121 7.15136 20.1062 7.49918C19.8011 7.84807 19.1331 7.96311 18.6181 7.75603Z" fill="#2EBD59"/>
</g>
<defs>
<clipPath id="clip0_487_624">
<rect width="23.2252" height="15.684" fill="white" transform="translate(0.136963 0.804443)"/>
</clipPath>
</defs>
</svg>
