<svg width="24" height="17" viewBox="0 0 24 17" fill="none" xmlns="http://www.w3.org/2000/svg">
<g clip-path="url(#clip0_487_649)">
<path fill-rule="evenodd" clip-rule="evenodd" d="M9.11396 0.791504C7.88709 0.792159 6.89417 1.5119 6.89508 2.39879C6.89417 3.28568 7.888 4.00541 9.11486 4.00607H11.3346V2.39944C11.3356 1.51255 10.3417 0.792815 9.11396 0.791504C9.11486 0.791504 9.11486 0.791504 9.11396 0.791504V0.791504ZM9.11396 5.07847H3.19635C1.96948 5.07912 0.975658 5.79886 0.976565 6.68575C0.974751 7.57264 1.96858 8.29238 3.19544 8.29369H9.11396C10.3408 8.29303 11.3346 7.57329 11.3337 6.6864C11.3346 5.79886 10.3408 5.07912 9.11396 5.07847Z" fill="#36C5F0"/>
<path fill-rule="evenodd" clip-rule="evenodd" d="M23.1709 6.68636C23.1718 5.79947 22.178 5.07973 20.9511 5.07908C19.7243 5.07973 18.7304 5.79947 18.7313 6.68636V8.2943H20.9511C22.178 8.29364 23.1718 7.5739 23.1709 6.68636ZM17.2524 6.68636V2.3994C17.2533 1.51316 16.2604 0.793425 15.0335 0.792114C13.8066 0.79277 12.8128 1.51251 12.8137 2.3994V6.68636C12.8119 7.57325 13.8057 8.29299 15.0326 8.2943C16.2595 8.29364 17.2533 7.5739 17.2524 6.68636Z" fill="#2EB67D"/>
<path fill-rule="evenodd" clip-rule="evenodd" d="M15.0328 16.8682C16.2596 16.8675 17.2535 16.1478 17.2526 15.2609C17.2535 14.374 16.2596 13.6543 15.0328 13.6536H12.813V15.2609C12.8121 16.1471 13.8059 16.8669 15.0328 16.8682ZM15.0328 12.5806H20.9513C22.1782 12.5799 23.172 11.8602 23.1711 10.9733C23.1729 10.0864 22.1791 9.36667 20.9522 9.36536H15.0337C13.8068 9.36601 12.813 10.0857 12.8139 10.9726C12.813 11.8602 13.8059 12.5799 15.0328 12.5806Z" fill="#ECB22E"/>
<path fill-rule="evenodd" clip-rule="evenodd" d="M0.976807 10.9734C0.9759 11.8603 1.96973 12.58 3.19659 12.5807C4.42346 12.58 5.41728 11.8603 5.41637 10.9734V9.36609H3.19659C1.96973 9.36674 0.9759 10.0865 0.976807 10.9734ZM6.89532 10.9734V15.2603C6.89351 16.1472 7.88733 16.867 9.1142 16.8683C10.3411 16.8676 11.3349 16.1479 11.334 15.261V10.9747C11.3358 10.0878 10.342 9.36806 9.11511 9.36674C7.88733 9.36674 6.89442 10.0865 6.89532 10.9734C6.89532 10.974 6.89532 10.9734 6.89532 10.9734Z" fill="#E01E5A"/>
</g>
<defs>
<clipPath id="clip0_487_649">
<rect width="22.1942" height="16.0761" fill="white" transform="translate(0.976807 0.791504)"/>
</clipPath>
</defs>
</svg>
