<svg width="56" height="57" viewBox="0 0 56 57" fill="none" xmlns="http://www.w3.org/2000/svg">
<g filter="url(#filter0_d_487_557)">
<rect x="5.5" y="2.5" width="45" height="45" rx="12" fill="#4FD1C5"/>
</g>
<path d="M28.0002 15.8586C22.9522 15.8586 18.8596 19.9512 18.8596 24.9992C18.8596 30.0472 22.9522 34.1398 28.0002 34.1398C33.0482 34.1398 37.1409 30.0472 37.1409 24.9992C37.1409 19.9512 33.0482 15.8586 28.0002 15.8586Z" fill="white" stroke="#4FD1C5" stroke-width="0.75" stroke-miterlimit="10"/>
<path d="M28.0001 15.8586C25.4482 15.8586 23.0488 19.9512 23.0488 24.9992C23.0488 30.0472 25.4482 34.1398 28.0001 34.1398C30.552 34.1398 32.9515 30.0472 32.9515 24.9992C32.9515 19.9512 30.552 15.8586 28.0001 15.8586Z" fill="white" stroke="#4FD1C5" stroke-width="0.75" stroke-miterlimit="10"/>
<path d="M21.9062 18.9055C23.5867 20.0986 25.7022 20.8101 28.0001 20.8101C30.298 20.8101 32.4136 20.0986 34.094 18.9055" fill="white"/>
<path d="M21.9062 18.9055C23.5867 20.0986 25.7022 20.8101 28.0001 20.8101C30.298 20.8101 32.4136 20.0986 34.094 18.9055" stroke="#4FD1C5" stroke-width="0.75" stroke-linecap="round" stroke-linejoin="round"/>
<path d="M34.094 31.0944C32.4136 29.9013 30.298 29.1898 28.0001 29.1898C25.7022 29.1898 23.5867 29.9013 21.9062 31.0944" stroke="#4FD1C5" stroke-width="0.75" stroke-linecap="round" stroke-linejoin="round"/>
<path d="M28 15.8586V34.1398" stroke="#4FD1C5" stroke-width="0.75" stroke-miterlimit="10"/>
<path d="M37.1409 24.999H18.8596" stroke="#4FD1C5" stroke-width="0.75" stroke-miterlimit="10"/>
<defs>
<filter id="filter0_d_487_557" x="-4.76837e-07" y="0.5" width="56" height="56" filterUnits="userSpaceOnUse" color-interpolation-filters="sRGB">
<feFlood flood-opacity="0" result="BackgroundImageFix"/>
<feColorMatrix in="SourceAlpha" type="matrix" values="0 0 0 0 0 0 0 0 0 0 0 0 0 0 0 0 0 0 127 0" result="hardAlpha"/>
<feOffset dy="3.5"/>
<feGaussianBlur stdDeviation="2.75"/>
<feColorMatrix type="matrix" values="0 0 0 0 0 0 0 0 0 0 0 0 0 0 0 0 0 0 0.02 0"/>
<feBlend mode="normal" in2="BackgroundImageFix" result="effect1_dropShadow_487_557"/>
<feBlend mode="normal" in="SourceGraphic" in2="effect1_dropShadow_487_557" result="shape"/>
</filter>
</defs>
</svg>
