<svg width="24" height="17" viewBox="0 0 24 17" fill="none" xmlns="http://www.w3.org/2000/svg">
<g clip-path="url(#clip0_487_589)">
<path d="M23.0822 7.81097L12.7902 0.808751L11.7929 0.130249L4.04539 5.40135L0.502617 7.81097C0.325657 7.93199 0.226318 8.09575 0.226318 8.26645C0.226318 8.43716 0.325657 8.60092 0.502617 8.72194L7.58069 13.5376L11.7929 16.4027L19.5394 11.1316L19.6601 11.0502L23.0822 8.72557C23.1709 8.66568 23.2413 8.59443 23.2893 8.51595C23.3373 8.43746 23.3621 8.35329 23.3621 8.26827C23.3621 8.18326 23.3373 8.09908 23.2893 8.02059C23.2413 7.94211 23.1709 7.87087 23.0822 7.81097ZM11.7929 10.6724L8.25657 8.26645L11.7929 5.86046L15.3282 8.26645L11.7929 10.6724Z" fill="#2684FF"/>
<path d="M11.7931 5.86087C10.6809 5.10436 10.054 4.07915 10.0492 3.00916C10.0444 1.93918 10.6621 0.911384 11.7675 0.150269L4.02954 5.41265L8.24072 8.27776L11.7931 5.86087Z" fill="url(#paint0_linear_487_589)"/>
<path d="M15.3379 8.26025L11.793 10.6728C12.9094 11.4325 13.5365 12.4629 13.5365 13.5372C13.5365 14.6115 12.9094 15.6418 11.793 16.4015L19.5522 11.1254L15.3379 8.26025Z" fill="url(#paint1_linear_487_589)"/>
</g>
<defs>
<linearGradient id="paint0_linear_487_589" x1="11.1599" y1="3.42654" x2="8.03453" y2="8.01933" gradientUnits="userSpaceOnUse">
<stop offset="0.18" stop-color="#0052CC"/>
<stop offset="1" stop-color="#2684FF"/>
</linearGradient>
<linearGradient id="paint1_linear_487_589" x1="901.394" y1="706.539" x2="1276.76" y2="1064.21" gradientUnits="userSpaceOnUse">
<stop offset="0.18" stop-color="#0052CC"/>
<stop offset="1" stop-color="#2684FF"/>
</linearGradient>
<clipPath id="clip0_487_589">
<rect width="23.2252" height="16.4682" fill="white" transform="translate(0.136963 0.0321045)"/>
</clipPath>
</defs>
</svg>
