<svg width="24" height="13" viewBox="0 0 24 13" fill="none" xmlns="http://www.w3.org/2000/svg">
<path d="M11.796 1.93896C6.65073 1.93896 2.4646 4.08273 2.4646 6.71769C2.4646 9.35264 6.65073 11.4964 11.796 11.4964C16.9413 11.4964 21.1274 9.35264 21.1274 6.71769C21.1274 4.08273 16.9413 1.93896 11.796 1.93896ZM16.6524 5.11612L10.6229 8.79206C10.5567 8.83241 10.4744 8.865 10.3815 8.88763C10.2887 8.91027 10.1874 8.92241 10.0845 8.92325H10.0724C9.97178 8.92323 9.87231 8.91238 9.78041 8.8914C9.68852 8.87043 9.60626 8.83979 9.53898 8.80148L6.95489 7.33111C6.88927 7.29546 6.83822 7.25346 6.80474 7.20756C6.77127 7.16167 6.75605 7.11281 6.75997 7.06386C6.76389 7.01491 6.78688 6.96686 6.82759 6.92252C6.8683 6.87819 6.9259 6.83847 6.99701 6.8057C7.06812 6.77292 7.1513 6.74776 7.24167 6.73169C7.33204 6.71562 7.42777 6.70896 7.52324 6.7121C7.61871 6.71525 7.71199 6.72813 7.79759 6.75C7.8832 6.77187 7.9594 6.80228 8.02173 6.83945L10.0536 7.99553L15.5533 4.64331C15.6766 4.57027 15.8512 4.52502 16.0391 4.51735C16.2271 4.50968 16.4134 4.5402 16.5578 4.60231C16.7022 4.66443 16.7931 4.75315 16.8108 4.84929C16.8285 4.94544 16.7716 5.04129 16.6524 5.11612Z" fill="#68D391"/>
</svg>
