<svg width="1128" height="180" viewBox="0 0 1128 180" fill="none" xmlns="http://www.w3.org/2000/svg">
<path d="M973.237 122.733C1031.71 113.425 1100.22 126.611 1127.17 134.367V179.728H0.80481V2.24939C57.3925 7.57352 93.7701 51.3497 102.865 79.1536C110.282 101.83 110.612 118 150.021 122.733C189.641 127.49 236.616 112.351 276.362 91.8428C308.159 75.4366 355.629 85.0069 375.39 91.8428C410.42 103.74 468.124 111.808 514.472 99.6613C572.407 84.4776 604.406 88.8158 677.499 99.6613C750.591 110.507 743.181 117.408 804.147 134.367C865.114 151.325 900.144 134.367 973.237 122.733Z" fill="url(#paint0_linear_487_524)"/>
<path d="M1127.17 134.367C1100.22 126.611 1031.71 113.425 973.237 122.733C900.144 134.367 865.114 151.325 804.147 134.367C743.181 117.408 750.591 110.507 677.499 99.6613C604.406 88.8158 572.407 84.4776 514.472 99.6613C468.124 111.808 410.42 103.74 375.39 91.8428C355.629 85.0069 308.158 75.4366 276.362 91.8428C236.616 112.351 189.641 127.49 150.021 122.733C110.612 118 110.282 101.83 102.865 79.1536C93.7702 51.3497 57.3924 7.57352 0.804793 2.24939" stroke="#2D3748" stroke-width="3"/>
<path d="M153.554 103.483C95.5295 94.1822 27.5448 107.358 0.80542 115.108V179.55H1125.83V27.0556C1069.68 32.3758 1021.97 30.9961 1012.95 58.7796C1005.59 81.4398 1005.26 97.5976 966.156 102.327C926.841 107.081 903.987 79.2723 864.547 58.7796C832.994 42.3854 779.855 63.7185 760.246 70.5494C725.485 82.4378 646.462 56.4991 612.216 36.1094C563.317 6.99508 499.01 4.3322 450.443 36.1094C401.876 67.8865 353.703 41.8337 293.205 58.7796C232.707 75.7255 226.084 115.108 153.554 103.483Z" fill="url(#paint1_linear_487_524)"/>
<path d="M0.80542 115.239C27.5448 107.478 95.5295 94.2858 153.554 103.598C226.084 115.239 232.707 75.8054 293.205 58.8378C353.703 41.8703 401.876 67.9564 450.443 36.1386C499.01 4.32076 563.317 6.98706 612.216 36.1386C646.462 56.5545 725.485 82.5264 760.246 70.6228C779.855 63.7831 832.994 42.4227 864.547 58.8378C903.987 79.3568 926.841 107.201 966.156 102.441C1005.26 97.7056 1005.59 81.5271 1012.95 58.8378C1021.97 31.0188 1069.68 32.4003 1125.83 27.0732" stroke="#4FD1C5" stroke-width="3"/>
<defs>
<linearGradient id="paint0_linear_487_524" x1="563.987" y1="2.24939" x2="563.987" y2="179.728" gradientUnits="userSpaceOnUse">
<stop stop-color="#2D3748" stop-opacity="0.36"/>
<stop offset="1" stop-color="#2D3748" stop-opacity="0"/>
</linearGradient>
<linearGradient id="paint1_linear_487_524" x1="563.317" y1="13.2642" x2="563.317" y2="179.55" gradientUnits="userSpaceOnUse">
<stop stop-color="#4FD1C5" stop-opacity="0.54"/>
<stop offset="1" stop-color="#4FD1C5" stop-opacity="0"/>
</linearGradient>
</defs>
</svg>
