<svg width="182" height="35" viewBox="0 0 182 35" fill="none" xmlns="http://www.w3.org/2000/svg">
<path fill-rule="evenodd" clip-rule="evenodd" d="M50.5845 12.5V0.863636H54.7322C55.6375 0.863636 56.3875 1.02841 56.9822 1.35795C57.5769 1.6875 58.022 2.13826 58.3174 2.71023C58.6129 3.27841 58.7606 3.91856 58.7606 4.63068C58.7606 5.34659 58.611 5.99053 58.3118 6.5625C58.0163 7.13068 57.5693 7.58144 56.9709 7.91477C56.3762 8.24432 55.6281 8.40909 54.7265 8.40909H52.3402V12.5H50.5845ZM54.5674 6.92045H52.3402V2.36932H54.5447C55.1281 2.36932 55.5978 2.46591 55.9538 2.65909C56.3137 2.85227 56.5769 3.11932 56.7436 3.46023C56.9103 3.80114 56.9936 4.19129 56.9936 4.63068C56.9936 5.07008 56.9103 5.46212 56.7436 5.80682C56.5769 6.15152 56.3156 6.42424 55.9595 6.625C55.6034 6.82197 55.1394 6.92045 54.5674 6.92045ZM66.2109 8.88068V3.77273H67.9155V12.5H66.245V10.9886H66.1541C65.9533 11.4545 65.6314 11.8428 65.1882 12.1534C64.7488 12.4602 64.2014 12.6136 63.5461 12.6136C62.9855 12.6136 62.4893 12.4905 62.0575 12.2443C61.6295 11.9943 61.2924 11.625 61.0461 11.1364C60.8037 10.6477 60.6825 10.0436 60.6825 9.32386V3.77273H62.3814V9.11932C62.3814 9.71402 62.5461 10.1875 62.8757 10.5398C63.2052 10.892 63.6333 11.0682 64.1598 11.0682C64.478 11.0682 64.7943 10.9886 65.1086 10.8295C65.4268 10.6705 65.6901 10.4299 65.8984 10.108C66.1105 9.78598 66.2147 9.37689 66.2109 8.88068ZM70.3345 12.5V0.863636H72.0334V5.1875H72.1356C72.2341 5.00568 72.3762 4.79545 72.5618 4.55682C72.7474 4.31818 73.0049 4.10985 73.3345 3.93182C73.664 3.75 74.0996 3.65909 74.6413 3.65909C75.3459 3.65909 75.9746 3.83712 76.5277 4.19318C77.0807 4.54924 77.5144 5.0625 77.8288 5.73295C78.147 6.40341 78.3061 7.21023 78.3061 8.15341C78.3061 9.09659 78.1489 9.9053 77.8345 10.5795C77.5201 11.25 77.0883 11.767 76.539 12.1307C75.9898 12.4905 75.3629 12.6705 74.6584 12.6705C74.1281 12.6705 73.6943 12.5814 73.3572 12.4034C73.0239 12.2254 72.7625 12.017 72.5731 11.7784C72.3837 11.5398 72.2379 11.3277 72.1356 11.142H71.9936V12.5H70.3345ZM71.9993 8.13636C71.9993 8.75 72.0883 9.28788 72.2663 9.75C72.4443 10.2121 72.7019 10.5739 73.039 10.8352C73.3762 11.0928 73.789 11.2216 74.2777 11.2216C74.7852 11.2216 75.2095 11.0871 75.5504 10.8182C75.8913 10.5455 76.1489 10.1761 76.3231 9.71023C76.5012 9.24432 76.5902 8.7197 76.5902 8.13636C76.5902 7.56061 76.5031 7.04356 76.3288 6.58523C76.1584 6.12689 75.9008 5.76515 75.5561 5.5C75.2152 5.23485 74.789 5.10227 74.2777 5.10227C73.7852 5.10227 73.3686 5.22917 73.0277 5.48295C72.6906 5.73674 72.4349 6.09091 72.2606 6.54545C72.0864 7 71.9993 7.5303 71.9993 8.13636ZM81.9126 0.863636V12.5H80.2138V0.863636H81.9126ZM84.1981 3.77273H85.897V12.5H84.1981V3.77273ZM85.0561 2.42614C84.7606 2.42614 84.5068 2.32765 84.2947 2.13068C84.0864 1.92992 83.9822 1.69129 83.9822 1.41477C83.9822 1.13447 84.0864 0.895833 84.2947 0.698863C84.5068 0.498106 84.7606 0.397727 85.0561 0.397727C85.3515 0.397727 85.6034 0.498106 85.8118 0.698863C86.0239 0.895833 86.1299 1.13447 86.1299 1.41477C86.1299 1.69129 86.0239 1.92992 85.8118 2.13068C85.6034 2.32765 85.3515 2.42614 85.0561 2.42614ZM91.8586 12.6761C91.0139 12.6761 90.2867 12.4848 89.6768 12.1023C89.0708 11.7159 88.6049 11.1837 88.2791 10.5057C87.9533 9.82765 87.7905 9.05114 87.7905 8.17614C87.7905 7.28977 87.9571 6.50758 88.2905 5.82955C88.6238 5.14773 89.0935 4.61553 89.6995 4.23295C90.3056 3.85038 91.0196 3.65909 91.8416 3.65909C92.5045 3.65909 93.0954 3.7822 93.6143 4.02841C94.1333 4.27083 94.5518 4.61174 94.87 5.05114C95.192 5.49053 95.3833 6.00379 95.4439 6.59091H93.7905C93.6995 6.18182 93.4912 5.82955 93.1655 5.53409C92.8435 5.23864 92.4117 5.09091 91.87 5.09091C91.3965 5.09091 90.9818 5.21591 90.6257 5.46591C90.2734 5.71212 89.9988 6.06439 89.8018 6.52273C89.6049 6.97727 89.5064 7.51515 89.5064 8.13636C89.5064 8.77273 89.603 9.32197 89.7961 9.78409C89.9893 10.2462 90.262 10.6042 90.6143 10.858C90.9704 11.1117 91.3889 11.2386 91.87 11.2386C92.192 11.2386 92.4836 11.1799 92.745 11.0625C93.0102 10.9413 93.2318 10.7689 93.4098 10.5455C93.5916 10.322 93.7185 10.053 93.7905 9.73864H95.4439C95.3833 10.303 95.1995 10.8068 94.8927 11.25C94.5859 11.6932 94.1749 12.0417 93.6598 12.2955C93.1484 12.5492 92.548 12.6761 91.8586 12.6761ZM105.398 12.5H101.631V0.863636H105.518C106.658 0.863636 107.637 1.09659 108.455 1.5625C109.273 2.02462 109.9 2.68939 110.336 3.55682C110.775 4.42045 110.995 5.45644 110.995 6.66477C110.995 7.87689 110.773 8.91856 110.33 9.78977C109.891 10.661 109.254 11.3314 108.421 11.8011C107.588 12.267 106.58 12.5 105.398 12.5ZM103.387 10.9659H105.302C106.188 10.9659 106.925 10.7992 107.512 10.4659C108.099 10.1288 108.539 9.64205 108.83 9.00568C109.122 8.36553 109.268 7.58523 109.268 6.66477C109.268 5.75189 109.122 4.97727 108.83 4.34091C108.542 3.70455 108.112 3.22159 107.54 2.89205C106.968 2.5625 106.258 2.39773 105.41 2.39773H103.387V10.9659ZM115.582 12.6932C115.029 12.6932 114.529 12.5909 114.082 12.3864C113.635 12.178 113.281 11.8769 113.019 11.483C112.762 11.089 112.633 10.6061 112.633 10.0341C112.633 9.54167 112.727 9.13636 112.917 8.81818C113.106 8.5 113.362 8.24811 113.684 8.0625C114.006 7.87689 114.366 7.73674 114.763 7.64205C115.161 7.54735 115.566 7.47538 115.979 7.42614L117.252 7.27841C117.578 7.23674 117.815 7.17045 117.962 7.07955C118.11 6.98864 118.184 6.84091 118.184 6.63636V6.59659C118.184 6.10038 118.044 5.71591 117.763 5.44318C117.487 5.17045 117.074 5.03409 116.525 5.03409C115.953 5.03409 115.502 5.16098 115.173 5.41477C114.847 5.66477 114.621 5.94318 114.496 6.25L112.9 5.88636C113.089 5.35606 113.366 4.92803 113.729 4.60227C114.097 4.27273 114.519 4.03409 114.996 3.88636C115.474 3.73485 115.976 3.65909 116.502 3.65909C116.851 3.65909 117.22 3.70076 117.61 3.78409C118.004 3.86364 118.371 4.01136 118.712 4.22727C119.057 4.44318 119.339 4.75189 119.559 5.15341C119.779 5.55114 119.888 6.06818 119.888 6.70455V12.5H118.229V11.3068H118.161C118.051 11.5265 117.887 11.7424 117.667 11.9545C117.447 12.1667 117.165 12.3428 116.82 12.483C116.476 12.6231 116.063 12.6932 115.582 12.6932ZM115.951 11.3295C116.421 11.3295 116.822 11.2367 117.156 11.0511C117.493 10.8655 117.748 10.6231 117.923 10.3239C118.101 10.0208 118.19 9.69697 118.19 9.35227V8.22727C118.129 8.28788 118.012 8.3447 117.837 8.39773C117.667 8.44697 117.472 8.49053 117.252 8.52841C117.032 8.5625 116.818 8.5947 116.61 8.625C116.402 8.65152 116.227 8.67424 116.087 8.69318C115.758 8.73485 115.457 8.80492 115.184 8.90341C114.915 9.00189 114.699 9.14394 114.536 9.32955C114.377 9.51136 114.298 9.75379 114.298 10.0568C114.298 10.4773 114.453 10.7955 114.763 11.0114C115.074 11.2235 115.47 11.3295 115.951 11.3295ZM126.225 3.77273V5.13636H124.435V9.9375C124.435 10.267 124.485 10.5152 124.583 10.6818C124.682 10.8447 124.808 10.9564 124.964 11.017C125.123 11.0739 125.295 11.1023 125.481 11.1023C125.617 11.1023 125.736 11.0928 125.839 11.0739C125.941 11.0549 126.021 11.0398 126.077 11.0284L126.384 12.4318C126.286 12.4697 126.146 12.5076 125.964 12.5455C125.782 12.5871 125.555 12.6098 125.282 12.6136C124.835 12.6212 124.418 12.5417 124.032 12.375C123.646 12.2083 123.333 11.9508 123.094 11.6023C122.856 11.2538 122.736 10.8163 122.736 10.2898V5.13636H121.458V3.77273H122.736V1.68182H124.435V3.77273H126.225ZM130.644 12.6932C130.091 12.6932 129.591 12.5909 129.144 12.3864C128.697 12.178 128.343 11.8769 128.082 11.483C127.824 11.089 127.695 10.6061 127.695 10.0341C127.695 9.54167 127.79 9.13636 127.979 8.81818C128.169 8.5 128.424 8.24811 128.746 8.0625C129.068 7.87689 129.428 7.73674 129.826 7.64205C130.224 7.54735 130.629 7.47538 131.042 7.42614L132.315 7.27841C132.64 7.23674 132.877 7.17045 133.025 7.07955C133.173 6.98864 133.246 6.84091 133.246 6.63636V6.59659C133.246 6.10038 133.106 5.71591 132.826 5.44318C132.549 5.17045 132.137 5.03409 131.587 5.03409C131.015 5.03409 130.565 5.16098 130.235 5.41477C129.909 5.66477 129.684 5.94318 129.559 6.25L127.962 5.88636C128.152 5.35606 128.428 4.92803 128.792 4.60227C129.159 4.27273 129.582 4.03409 130.059 3.88636C130.536 3.73485 131.038 3.65909 131.565 3.65909C131.913 3.65909 132.282 3.70076 132.673 3.78409C133.066 3.86364 133.434 4.01136 133.775 4.22727C134.12 4.44318 134.402 4.75189 134.621 5.15341C134.841 5.55114 134.951 6.06818 134.951 6.70455V12.5H133.292V11.3068H133.224C133.114 11.5265 132.949 11.7424 132.729 11.9545C132.51 12.1667 132.227 12.3428 131.883 12.483C131.538 12.6231 131.125 12.6932 130.644 12.6932ZM131.013 11.3295C131.483 11.3295 131.885 11.2367 132.218 11.0511C132.555 10.8655 132.811 10.6231 132.985 10.3239C133.163 10.0208 133.252 9.69697 133.252 9.35227V8.22727C133.191 8.28788 133.074 8.3447 132.9 8.39773C132.729 8.44697 132.534 8.49053 132.315 8.52841C132.095 8.5625 131.881 8.5947 131.673 8.625C131.464 8.65152 131.29 8.67424 131.15 8.69318C130.82 8.73485 130.519 8.80492 130.246 8.90341C129.977 9.00189 129.762 9.14394 129.599 9.32955C129.44 9.51136 129.36 9.75379 129.36 10.0568C129.36 10.4773 129.515 10.7955 129.826 11.0114C130.137 11.2235 130.532 11.3295 131.013 11.3295ZM137.35 12.5V0.863636H139.049V5.1875H139.151C139.25 5.00568 139.392 4.79545 139.577 4.55682C139.763 4.31818 140.021 4.10985 140.35 3.93182C140.68 3.75 141.115 3.65909 141.657 3.65909C142.361 3.65909 142.99 3.83712 143.543 4.19318C144.096 4.54924 144.53 5.0625 144.844 5.73295C145.163 6.40341 145.322 7.21023 145.322 8.15341C145.322 9.09659 145.165 9.9053 144.85 10.5795C144.536 11.25 144.104 11.767 143.555 12.1307C143.005 12.4905 142.379 12.6705 141.674 12.6705C141.144 12.6705 140.71 12.5814 140.373 12.4034C140.04 12.2254 139.778 12.017 139.589 11.7784C139.399 11.5398 139.254 11.3277 139.151 11.142H139.009V12.5H137.35ZM139.015 8.13636C139.015 8.75 139.104 9.28788 139.282 9.75C139.46 10.2121 139.718 10.5739 140.055 10.8352C140.392 11.0928 140.805 11.2216 141.293 11.2216C141.801 11.2216 142.225 11.0871 142.566 10.8182C142.907 10.5455 143.165 10.1761 143.339 9.71023C143.517 9.24432 143.606 8.7197 143.606 8.13636C143.606 7.56061 143.519 7.04356 143.344 6.58523C143.174 6.12689 142.916 5.76515 142.572 5.5C142.231 5.23485 141.805 5.10227 141.293 5.10227C140.801 5.10227 140.384 5.22917 140.043 5.48295C139.706 5.73674 139.451 6.09091 139.276 6.54545C139.102 7 139.015 7.5303 139.015 8.13636ZM149.769 12.6932C149.216 12.6932 148.716 12.5909 148.269 12.3864C147.822 12.178 147.468 11.8769 147.207 11.483C146.949 11.089 146.82 10.6061 146.82 10.0341C146.82 9.54167 146.915 9.13636 147.104 8.81818C147.294 8.5 147.549 8.24811 147.871 8.0625C148.193 7.87689 148.553 7.73674 148.951 7.64205C149.349 7.54735 149.754 7.47538 150.167 7.42614L151.44 7.27841C151.765 7.23674 152.002 7.17045 152.15 7.07955C152.298 6.98864 152.371 6.84091 152.371 6.63636V6.59659C152.371 6.10038 152.231 5.71591 151.951 5.44318C151.674 5.17045 151.262 5.03409 150.712 5.03409C150.14 5.03409 149.69 5.16098 149.36 5.41477C149.034 5.66477 148.809 5.94318 148.684 6.25L147.087 5.88636C147.277 5.35606 147.553 4.92803 147.917 4.60227C148.284 4.27273 148.707 4.03409 149.184 3.88636C149.661 3.73485 150.163 3.65909 150.69 3.65909C151.038 3.65909 151.407 3.70076 151.798 3.78409C152.191 3.86364 152.559 4.01136 152.9 4.22727C153.245 4.44318 153.527 4.75189 153.746 5.15341C153.966 5.55114 154.076 6.06818 154.076 6.70455V12.5H152.417V11.3068H152.349C152.239 11.5265 152.074 11.7424 151.854 11.9545C151.635 12.1667 151.352 12.3428 151.008 12.483C150.663 12.6231 150.25 12.6932 149.769 12.6932ZM150.138 11.3295C150.608 11.3295 151.01 11.2367 151.343 11.0511C151.68 10.8655 151.936 10.6231 152.11 10.3239C152.288 10.0208 152.377 9.69697 152.377 9.35227V8.22727C152.316 8.28788 152.199 8.3447 152.025 8.39773C151.854 8.44697 151.659 8.49053 151.44 8.52841C151.22 8.5625 151.006 8.5947 150.798 8.625C150.589 8.65152 150.415 8.67424 150.275 8.69318C149.945 8.73485 149.644 8.80492 149.371 8.90341C149.102 9.00189 148.887 9.14394 148.724 9.32955C148.565 9.51136 148.485 9.75379 148.485 10.0568C148.485 10.4773 148.64 10.7955 148.951 11.0114C149.262 11.2235 149.657 11.3295 150.138 11.3295ZM162.879 5.90341L161.339 6.17614C161.274 5.97917 161.172 5.79167 161.032 5.61364C160.896 5.43561 160.71 5.28977 160.475 5.17614C160.24 5.0625 159.947 5.00568 159.594 5.00568C159.113 5.00568 158.712 5.11364 158.39 5.32955C158.068 5.54167 157.907 5.81629 157.907 6.15341C157.907 6.44508 158.015 6.67992 158.231 6.85795C158.447 7.03598 158.795 7.18182 159.276 7.29545L160.663 7.61364C161.466 7.79924 162.064 8.08523 162.458 8.47159C162.852 8.85795 163.049 9.35985 163.049 9.97727C163.049 10.5 162.897 10.9659 162.594 11.375C162.295 11.7803 161.877 12.0985 161.339 12.3295C160.805 12.5606 160.185 12.6761 159.481 12.6761C158.504 12.6761 157.706 12.4678 157.089 12.0511C156.471 11.6307 156.093 11.0341 155.952 10.2614L157.594 10.0114C157.697 10.4394 157.907 10.7633 158.225 10.983C158.543 11.1989 158.958 11.3068 159.469 11.3068C160.026 11.3068 160.471 11.1913 160.805 10.9602C161.138 10.7254 161.305 10.4394 161.305 10.1023C161.305 9.82955 161.202 9.60038 160.998 9.41477C160.797 9.22917 160.488 9.08902 160.072 8.99432L158.594 8.67045C157.78 8.48485 157.178 8.18939 156.788 7.78409C156.401 7.37879 156.208 6.86553 156.208 6.24432C156.208 5.72917 156.352 5.27841 156.64 4.89205C156.928 4.50568 157.326 4.20455 157.833 3.98864C158.341 3.76894 158.922 3.65909 159.577 3.65909C160.521 3.65909 161.263 3.86364 161.805 4.27273C162.346 4.67803 162.704 5.22159 162.879 5.90341ZM168.678 12.6761C167.818 12.6761 167.078 12.4924 166.457 12.125C165.839 11.7538 165.362 11.233 165.025 10.5625C164.691 9.88826 164.525 9.09848 164.525 8.19318C164.525 7.29924 164.691 6.51136 165.025 5.82955C165.362 5.14773 165.832 4.61553 166.434 4.23295C167.04 3.85038 167.748 3.65909 168.559 3.65909C169.051 3.65909 169.529 3.74053 169.991 3.90341C170.453 4.06629 170.868 4.32197 171.235 4.67045C171.602 5.01894 171.892 5.47159 172.104 6.02841C172.316 6.58144 172.423 7.25379 172.423 8.04545V8.64773H166.219C166.233 9.1797 166.334 9.63614 166.525 10.017C166.733 10.4261 167.023 10.7386 167.394 10.9545C167.765 11.1667 168.199 11.2727 168.695 11.2727C169.017 11.2727 169.311 11.2273 169.576 11.1364C169.841 11.0417 170.07 10.9015 170.263 10.7159C170.457 10.5303 170.604 10.3011 170.707 10.0284L172.315 10.3182C172.186 10.7917 171.955 11.2064 171.621 11.5625C171.292 11.9148 170.877 12.1894 170.377 12.3864C169.881 12.5795 169.315 12.6761 168.678 12.6761ZM166.502 6.32386C166.336 6.64947 166.243 6.99985 166.222 7.375H170.758C170.758 6.92803 170.667 6.5322 170.485 6.1875C170.303 5.83902 170.048 5.56439 169.718 5.36364C169.392 5.16288 169.01 5.0625 168.57 5.0625C168.093 5.0625 167.676 5.17992 167.32 5.41477C166.968 5.64583 166.695 5.94886 166.502 6.32386ZM180.847 5.90341L179.308 6.17614C179.243 5.97917 179.141 5.79167 179.001 5.61364C178.864 5.43561 178.679 5.28977 178.444 5.17614C178.209 5.0625 177.915 5.00568 177.563 5.00568C177.082 5.00568 176.681 5.11364 176.359 5.32955C176.037 5.54167 175.876 5.81629 175.876 6.15341C175.876 6.44508 175.984 6.67992 176.2 6.85795C176.415 7.03598 176.764 7.18182 177.245 7.29545L178.631 7.61364C179.434 7.79924 180.033 8.08523 180.427 8.47159C180.821 8.85795 181.018 9.35985 181.018 9.97727C181.018 10.5 180.866 10.9659 180.563 11.375C180.264 11.7803 179.845 12.0985 179.308 12.3295C178.773 12.5606 178.154 12.6761 177.45 12.6761C176.472 12.6761 175.675 12.4678 175.058 12.0511C174.44 11.6307 174.061 11.0341 173.921 10.2614L175.563 10.0114C175.665 10.4394 175.876 10.7633 176.194 10.983C176.512 11.1989 176.927 11.3068 177.438 11.3068C177.995 11.3068 178.44 11.1913 178.773 10.9602C179.107 10.7254 179.273 10.4394 179.273 10.1023C179.273 9.82955 179.171 9.60038 178.967 9.41477C178.766 9.22917 178.457 9.08902 178.04 8.99432L176.563 8.67045C175.749 8.48485 175.147 8.18939 174.756 7.78409C174.37 7.37879 174.177 6.86553 174.177 6.24432C174.177 5.72917 174.321 5.27841 174.609 4.89205C174.897 4.50568 175.294 4.20455 175.802 3.98864C176.309 3.76894 176.891 3.65909 177.546 3.65909C178.489 3.65909 179.232 3.86364 179.773 4.27273C180.315 4.67803 180.673 5.22159 180.847 5.90341ZM18.8367 12.2806L6.83671 24.2806C6.69603 24.4215 6.50514 24.5006 6.30608 24.5006C6.10703 24.5006 5.91613 24.4215 5.77546 24.2806L0.525459 19.0306C0.232403 18.7376 0.232403 18.2624 0.525459 17.9694C0.818515 17.6763 1.29365 17.6763 1.58671 17.9694L6.30608 22.6897L17.7755 11.2194C18.0685 10.9263 18.5437 10.9263 18.8367 11.2194C19.1298 11.5124 19.1298 11.9876 18.8367 12.2806ZM50.539 34.5H53.6811C54.7152 34.5 55.5935 34.2962 56.316 33.8885C57.0386 33.4775 57.5888 32.8909 57.9666 32.1286C58.3444 31.3629 58.5334 30.4498 58.5334 29.3892C58.5334 28.3352 58.3461 27.4304 57.9716 26.6747C57.597 25.9157 57.0585 25.334 56.3558 24.9297C55.6531 24.522 54.808 24.3182 53.8203 24.3182H50.539V34.5ZM53.6015 33.4062H51.772V25.4119H53.7407C54.5362 25.4119 55.2007 25.5727 55.7344 25.8942C56.268 26.2124 56.669 26.6697 56.9375 27.2663C57.2059 27.8596 57.3402 28.5672 57.3402 29.3892C57.3402 30.2178 57.2043 30.9321 56.9325 31.532C56.6607 32.1319 56.2481 32.5942 55.6946 32.919C55.1411 33.2438 54.4434 33.4062 53.6015 33.4062ZM61.74 34.1719C62.2737 34.4967 62.9084 34.6591 63.6442 34.6591C64.1612 34.6591 64.6269 34.5795 65.0412 34.4205C65.4555 34.258 65.8035 34.0327 66.0852 33.7443C66.3669 33.4527 66.5674 33.1146 66.6868 32.7301L65.5532 32.4119C65.4538 32.6771 65.313 32.8991 65.1307 33.0781C64.9484 33.2538 64.7313 33.3864 64.4794 33.4759C64.2308 33.562 63.9524 33.6051 63.6442 33.6051C63.1702 33.6051 62.7542 33.5024 62.3963 33.2969C62.0383 33.0881 61.7583 32.7848 61.5561 32.3871C61.3758 32.0234 61.2772 31.5876 61.2604 31.0795H66.8061V30.5824C66.8061 29.8698 66.7116 29.2699 66.5227 28.7827C66.3338 28.2955 66.0802 27.9044 65.762 27.6094C65.4439 27.3111 65.0909 27.0956 64.7031 26.9631C64.3153 26.8305 63.9226 26.7642 63.5248 26.7642C62.8354 26.7642 62.2322 26.9332 61.7152 27.2713C61.2014 27.6061 60.8004 28.0734 60.5121 28.6733C60.227 29.2699 60.0845 29.9593 60.0845 30.7415C60.0845 31.5237 60.227 32.2098 60.5121 32.7997C60.8004 33.3864 61.2097 33.8438 61.74 34.1719ZM61.2634 30.0653C61.2857 29.7111 61.375 29.3764 61.5312 29.0611C61.7135 28.6932 61.9737 28.3949 62.3118 28.1662C62.6531 27.9342 63.0575 27.8182 63.5248 27.8182C63.9491 27.8182 64.317 27.916 64.6285 28.1115C64.9434 28.3071 65.1853 28.5739 65.3544 28.9119C65.5267 29.25 65.6129 29.6345 65.6129 30.0653H61.2634ZM71.9915 27.858V26.8636H70.2812V26.0881C70.2812 25.7102 70.3657 25.4235 70.5348 25.228C70.7071 25.0324 70.9872 24.9347 71.375 24.9347C71.544 24.9347 71.6799 24.9496 71.7826 24.9794C71.8887 25.0092 71.9716 25.0341 72.0312 25.054L72.3693 24.0398C72.2798 24 72.1439 23.9569 71.9616 23.9105C71.7793 23.8641 71.544 23.8409 71.2557 23.8409C70.8911 23.8409 70.5447 23.9138 70.2166 24.0597C69.8885 24.2055 69.6217 24.4242 69.4162 24.7159C69.2107 25.0076 69.1079 25.3722 69.1079 25.8097V26.8636H67.875V27.858H69.1079V34.5H70.2812V27.858H71.9915ZM74.3467 34.4055C74.7412 34.5878 75.1803 34.679 75.6642 34.679C76.1083 34.679 76.4845 34.6127 76.7928 34.4801C77.101 34.3475 77.3479 34.1868 77.5335 33.9979C77.7191 33.8089 77.8517 33.6316 77.9313 33.4659H77.9909V34.5H79.1642V29.4688C79.1642 28.8622 79.0648 28.3783 78.8659 28.017C78.6671 27.6558 78.4168 27.3857 78.1152 27.2067C77.8169 27.0277 77.507 26.91 77.1855 26.8537C76.8673 26.794 76.5856 26.7642 76.3404 26.7642C75.9559 26.7642 75.5648 26.8172 75.1671 26.9233C74.7726 27.026 74.4081 27.2083 74.0733 27.4702C73.7419 27.7287 73.4767 28.09 73.2779 28.554L74.3915 28.9517C74.5208 28.6733 74.7445 28.4115 75.0627 28.1662C75.3808 27.9209 75.82 27.7983 76.3801 27.7983C76.9204 27.7983 77.3231 27.9342 77.5882 28.206C77.8567 28.4777 77.9909 28.8589 77.9909 29.3494V29.3892C77.9909 29.5781 77.923 29.7107 77.7871 29.7869C77.6545 29.8632 77.4424 29.9179 77.1507 29.951C76.8624 29.9808 76.4862 30.0256 76.0222 30.0852C75.6675 30.1316 75.3145 30.1946 74.9632 30.2741C74.6152 30.3504 74.297 30.4664 74.0087 30.6222C73.7203 30.7779 73.49 30.9934 73.3176 31.2685C73.1453 31.5402 73.0591 31.8949 73.0591 32.3324C73.0591 32.8295 73.1751 33.2538 73.4071 33.6051C73.6391 33.9531 73.9523 34.2199 74.3467 34.4055ZM77.0165 33.3516C76.6983 33.5339 76.3072 33.625 75.8432 33.625C75.3759 33.625 74.9897 33.5223 74.6848 33.3168C74.3832 33.108 74.2324 32.7997 74.2324 32.392C74.2324 32.0938 74.3119 31.8584 74.471 31.6861C74.6334 31.5104 74.8456 31.3795 75.1074 31.2933C75.3726 31.2038 75.6576 31.1392 75.9625 31.0994C76.0885 31.0829 76.2525 31.063 76.4547 31.0398C76.6602 31.0133 76.8707 30.9834 77.0861 30.9503C77.3048 30.9138 77.4971 30.8724 77.6628 30.826C77.8318 30.7763 77.9412 30.7216 77.9909 30.6619V31.7358C77.9909 32.054 77.9081 32.3572 77.7423 32.6456C77.5799 32.9339 77.338 33.1693 77.0165 33.3516ZM86.1182 26.8636V31.3778C86.1182 31.8551 86.0138 32.2479 85.805 32.5561C85.5995 32.8643 85.3443 33.093 85.0394 33.2422C84.7378 33.3913 84.4411 33.4659 84.1495 33.4659C83.6623 33.4659 83.2612 33.3002 82.9464 32.9688C82.6348 32.6373 82.479 32.1932 82.479 31.6364V26.8636H81.3057V31.7159C81.3057 32.3655 81.4118 32.9041 81.6239 33.3317C81.836 33.7559 82.1277 34.0741 82.4989 34.2862C82.8701 34.495 83.2944 34.5994 83.7716 34.5994C84.3483 34.5994 84.8256 34.4652 85.2035 34.1967C85.5813 33.925 85.8597 33.5952 86.0387 33.2074H86.1182V34.5H87.2915V26.8636H86.1182ZM90.6138 34.5V24.3182H89.4405V34.5H90.6138ZM96.0838 27.858V26.8636H94.4531V25.0341H93.2798V26.8636H92.1264V27.858H93.2798V32.6307C93.2798 33.0748 93.3826 33.4427 93.588 33.7344C93.7969 34.026 94.0587 34.2431 94.3736 34.3857C94.6917 34.5282 95.0165 34.5994 95.348 34.5994C95.5667 34.5994 95.7474 34.5829 95.8899 34.5497C96.0324 34.5199 96.1434 34.4901 96.223 34.4602L95.9844 33.4062L95.7855 33.446C95.7026 33.4593 95.5966 33.4659 95.4673 33.4659C95.295 33.4659 95.1309 33.4394 94.9751 33.3864C94.8227 33.33 94.6967 33.2206 94.5973 33.0582C94.5012 32.8925 94.4531 32.6439 94.4531 32.3125V27.858H96.0838ZM109.86 24.3182H108.627V30.9602C108.627 31.4574 108.518 31.8999 108.299 32.2876C108.084 32.6721 107.772 32.9754 107.364 33.1974C106.957 33.4162 106.469 33.5256 105.903 33.5256C105.336 33.5256 104.849 33.4162 104.441 33.1974C104.037 32.9754 103.725 32.6721 103.506 32.2876C103.288 31.8999 103.178 31.4574 103.178 30.9602V24.3182H101.945V31.0597C101.945 31.7557 102.108 32.3771 102.433 32.924C102.761 33.4676 103.221 33.8968 103.815 34.2116C104.408 34.5232 105.104 34.679 105.903 34.679C106.701 34.679 107.397 34.5232 107.991 34.2116C108.584 33.8968 109.043 33.4676 109.368 32.924C109.696 32.3771 109.86 31.7557 109.86 31.0597V24.3182ZM112.322 24.3182V34.5H113.555V30.5227H115.782C115.871 30.5227 115.957 30.5211 116.042 30.5178L118.189 34.5H119.621L117.32 30.3015C117.465 30.2525 117.6 30.1953 117.726 30.13C118.233 29.8648 118.61 29.5002 118.855 29.0362C119.1 28.5722 119.223 28.0402 119.223 27.4403C119.223 26.8404 119.1 26.3052 118.855 25.8345C118.61 25.3639 118.232 24.9943 117.721 24.7259C117.211 24.4541 116.558 24.3182 115.763 24.3182H112.322ZM113.555 29.4091H115.743C116.286 29.4091 116.724 29.3295 117.055 29.1705C117.39 29.0114 117.632 28.786 117.781 28.4943C117.934 28.1993 118.01 27.848 118.01 27.4403C118.01 27.0327 117.934 26.6764 117.781 26.3714C117.629 26.0665 117.385 25.8312 117.05 25.6655C116.715 25.4964 116.273 25.4119 115.723 25.4119H113.555V29.4091ZM121.277 24.3182V34.5H127.243V33.4062H122.51V24.3182H121.277Z" fill="#4F7396"/>
</svg>
