<svg width="17" height="20" viewBox="0 0 17 20" fill="none" xmlns="http://www.w3.org/2000/svg">
<path fill-rule="evenodd" clip-rule="evenodd" d="M16.4951 8.5C16.4951 10.6159 15.7545 12.55 14.4111 13.9478C13.1567 15.25 11.4561 16 9.74512 16C8.06887 16 6.94949 15.4506 6.23605 14.875L5.22543 19.1716C5.14578 19.5105 4.84331 19.7501 4.49512 19.75C4.43706 19.7499 4.3792 19.7433 4.32262 19.7303C4.12821 19.6857 3.95958 19.5655 3.85402 19.3962C3.74846 19.227 3.71467 19.0227 3.76012 18.8284L6.76012 6.07844C6.85487 5.6751 7.25865 5.42494 7.66199 5.51969C8.06533 5.61444 8.31549 6.01822 8.22074 6.42156L6.63637 13.1528C6.93262 13.5625 7.80449 14.5 9.74512 14.5C12.3261 14.5 14.9951 12.2556 14.9951 8.5C14.994 5.663 13.2191 3.12947 10.5531 2.15945C7.88705 1.18943 4.89901 1.98998 3.07506 4.16293C1.2511 6.33589 0.980536 9.41745 2.39793 11.875C2.59192 12.2322 2.46598 12.679 2.11396 12.8823C1.76195 13.0857 1.31202 12.9715 1.09949 12.625C-0.633776 9.62135 -0.30363 5.85441 1.9257 3.19806C4.15502 0.541703 7.80757 -0.436935 11.0664 0.748969C14.3252 1.93487 16.4944 5.03213 16.4951 8.5Z" fill="#0D141C"/>
</svg>
