<svg width="24" height="21" viewBox="0 0 24 21" fill="none" xmlns="http://www.w3.org/2000/svg">
<path fill-rule="evenodd" clip-rule="evenodd" d="M23.2341 16.0888C23.1809 15.8333 22.9987 15.6238 22.7531 15.5356C22.7166 15.5225 20.0391 14.5156 18.7219 10.9203L20.5312 10.1966C20.916 10.0412 21.1019 9.60345 20.9466 9.21875C20.7912 8.83405 20.3535 8.64811 19.9688 8.80344L18.2981 9.47188C18.0928 8.49475 17.9929 7.49843 18 6.5C18 3.18629 15.3137 0.5 12 0.5C8.68629 0.5 6 3.18629 6 6.5C6.00586 7.49992 5.90593 8.49766 5.70188 9.47656L4.03125 8.80344C3.64655 8.64811 3.20877 8.83405 3.05344 9.21875C2.89811 9.60345 3.08405 10.0412 3.46875 10.1966L5.28469 10.9231C4.91258 11.9627 4.34842 12.9232 3.62156 13.7544C2.44781 15.08 1.2525 15.5356 1.24406 15.5356C0.998445 15.6239 0.816398 15.8336 0.763409 16.0891C0.71042 16.3447 0.794111 16.6095 0.984375 16.7881C1.65 17.4134 2.64094 17.5109 3.59812 17.6056C4.18969 17.6637 4.80094 17.7247 5.13469 17.9084C5.45062 18.0828 5.77688 18.5291 6.09188 18.9603C6.59812 19.655 7.17281 20.4416 8.08313 20.6741C8.93344 20.8925 9.80344 20.5963 10.5712 20.3347C11.0916 20.1575 11.5837 19.9897 11.9972 19.9897C12.4106 19.9897 12.9028 20.1575 13.4231 20.3347C14.0044 20.5325 14.6419 20.75 15.2887 20.75C15.4986 20.7512 15.7078 20.7257 15.9113 20.6741C16.8206 20.4416 17.3953 19.655 17.9016 18.9603C18.2166 18.5291 18.5428 18.0828 18.8587 17.9084C19.1925 17.7209 19.8038 17.6637 20.3953 17.6056C21.3525 17.5119 22.3434 17.4134 23.0091 16.7881C23.2009 16.6102 23.2862 16.3452 23.2341 16.0888ZM20.2509 16.1131C19.5094 16.1863 18.7434 16.2622 18.1388 16.5941C17.5341 16.9259 17.1075 17.5119 16.6941 18.0763C16.3191 18.59 15.93 19.1225 15.5428 19.2209C15.1247 19.3288 14.5341 19.1272 13.9097 18.9144C13.2853 18.7016 12.6619 18.4897 12 18.4897C11.3381 18.4897 10.7034 18.7053 10.0903 18.9144C9.47719 19.1234 8.87156 19.3288 8.45719 19.2209C8.07 19.1225 7.68187 18.59 7.30594 18.0763C6.89437 17.5138 6.46875 16.9288 5.86125 16.5941C5.25375 16.2594 4.49062 16.1863 3.75 16.1131C3.60469 16.0991 3.45469 16.0841 3.30562 16.0672C3.80586 15.6998 4.26731 15.2823 4.68281 14.8212C5.4675 13.9522 6.34406 12.6434 6.90844 10.7778L6.91406 10.7656C6.9333 10.7168 6.94774 10.6663 6.95719 10.6147C7.32976 9.27528 7.51248 7.8902 7.5 6.5C7.5 4.01472 9.51472 2 12 2C14.4853 2 16.5 4.01472 16.5 6.5C16.4875 7.89119 16.6705 9.27724 17.0438 10.6175C17.0532 10.6691 17.0676 10.7196 17.0869 10.7684L17.0925 10.7806C17.655 12.6463 18.5334 13.955 19.3181 14.8241C19.7336 15.2851 20.1951 15.7026 20.6953 16.07C20.5462 16.0841 20.3972 16.0991 20.25 16.1131H20.2509Z" fill="#0D141C"/>
</svg>
