<svg width="20" height="21" viewBox="0 0 20 21" fill="none" xmlns="http://www.w3.org/2000/svg">
<path fill-rule="evenodd" clip-rule="evenodd" d="M19 5.75C16.5158 5.74742 14.5026 3.73421 14.5 1.25C14.5 0.835786 14.1642 0.5 13.75 0.5H10C9.58579 0.5 9.25 0.835786 9.25 1.25V13.625C9.24957 14.5539 8.56906 15.3425 7.6502 15.4788C6.73134 15.6152 5.85117 15.0582 5.58103 14.1694C5.3109 13.2806 5.73225 12.328 6.57156 11.93C6.83331 11.8058 7.00009 11.5419 7 11.2522V7.25C7.0001 7.02807 6.9019 6.81749 6.73182 6.67492C6.56174 6.53234 6.33726 6.47241 6.11875 6.51125C2.77281 7.1075 0.25 10.1656 0.25 13.625C0.25 17.56 3.43997 20.75 7.375 20.75C11.31 20.75 14.5 17.56 14.5 13.625V9.90219C15.889 10.6269 17.4333 11.0036 19 11C19.4142 11 19.75 10.6642 19.75 10.25V6.5C19.75 6.08579 19.4142 5.75 19 5.75ZM18.25 9.46625C16.7843 9.33638 15.3809 8.81329 14.1878 7.95219C13.9592 7.7878 13.6577 7.76535 13.4072 7.89404C13.1568 8.02274 12.9995 8.2809 13 8.5625V13.625C13 16.7316 10.4816 19.25 7.375 19.25C4.2684 19.25 1.75 16.7316 1.75 13.625C1.75 11.1969 3.31 9.01906 5.5 8.225V10.8191C4.16118 11.7136 3.64072 13.4293 4.25693 14.9169C4.87314 16.4045 6.4544 17.2496 8.03361 16.9354C9.61283 16.6212 10.7501 15.2352 10.75 13.625V2H13.0469C13.3938 4.71699 15.533 6.85622 18.25 7.20312V9.46625Z" fill="#0D141C"/>
</svg>
