<svg width="17" height="18" viewBox="0 0 17 18" fill="none" xmlns="http://www.w3.org/2000/svg">
<path fill-rule="evenodd" clip-rule="evenodd" d="M9.12695 13.0625C9.12695 13.5803 8.70722 14 8.18945 14C7.67169 14 7.25195 13.5803 7.25195 13.0625C7.25195 12.5447 7.67169 12.125 8.18945 12.125C8.70722 12.125 9.12695 12.5447 9.12695 13.0625ZM8.18945 4.625C6.46602 4.625 5.06445 5.88672 5.06445 7.4375V7.75C5.06445 8.09518 5.34427 8.375 5.68945 8.375C6.03463 8.375 6.31445 8.09518 6.31445 7.75V7.4375C6.31445 6.57812 7.15586 5.875 8.18945 5.875C9.22305 5.875 10.0645 6.57812 10.0645 7.4375C10.0645 8.29688 9.22305 9 8.18945 9C7.84428 9 7.56445 9.27982 7.56445 9.625V10.25C7.56445 10.5952 7.84428 10.875 8.18945 10.875C8.53463 10.875 8.81445 10.5952 8.81445 10.25V10.1938C10.2395 9.93203 11.3145 8.79531 11.3145 7.4375C11.3145 5.88672 9.91289 4.625 8.18945 4.625ZM16.3145 9C16.3145 13.4873 12.6768 17.125 8.18945 17.125C3.70214 17.125 0.0644531 13.4873 0.0644531 9C0.0644531 4.51269 3.70214 0.875 8.18945 0.875C12.6748 0.879737 16.3097 4.51465 16.3145 9ZM15.0645 9C15.0645 5.20304 11.9864 2.125 8.18945 2.125C4.3925 2.125 1.31445 5.20304 1.31445 9C1.31445 12.797 4.3925 15.875 8.18945 15.875C11.9846 15.8707 15.0601 12.7952 15.0645 9Z" fill="#0D141C"/>
</svg>
