<svg width="24" height="21" viewBox="0 0 24 21" fill="none" xmlns="http://www.w3.org/2000/svg">
<path fill-rule="evenodd" clip-rule="evenodd" d="M23.25 9.75C23.2497 8.57597 22.5646 7.50999 21.4968 7.02206C20.429 6.53413 19.1746 6.71393 18.2869 7.48219C16.7166 6.64781 14.8406 6.14344 12.8813 6.02625L13.3678 3.10406L15.0291 3.35906C15.2031 4.44099 16.1312 5.24021 17.227 5.25165C18.3228 5.2631 19.2674 4.48344 19.464 3.40538C19.6606 2.32732 19.0519 1.26443 18.0226 0.888394C16.9933 0.512357 15.8428 0.932549 15.2981 1.88344L12.8606 1.50844C12.4548 1.44587 12.0741 1.72125 12.0066 2.12625L11.3625 6.015C9.315 6.10313 7.34813 6.61312 5.71313 7.48219C4.47154 6.43333 2.62051 6.56395 1.53852 7.77677C0.456526 8.9896 0.537135 10.8435 1.72031 11.9578C1.57449 12.4589 1.50032 12.9781 1.5 13.5C1.5 15.5559 2.625 17.4703 4.67906 18.8897C6.645 20.25 9.24469 21 12 21C14.7553 21 17.355 20.25 19.3209 18.8897C21.375 17.4703 22.5 15.5559 22.5 13.5C22.4997 12.9781 22.4255 12.4589 22.2797 11.9578C22.8962 11.3889 23.2478 10.5889 23.25 9.75ZM17.25 2.25C17.6642 2.25 18 2.58579 18 3C18 3.41421 17.6642 3.75 17.25 3.75C16.8358 3.75 16.5 3.41421 16.5 3C16.5 2.58579 16.8358 2.25 17.25 2.25ZM21.0122 11.0419C20.6893 11.2332 20.5575 11.6337 20.7038 11.9794C20.8986 12.4627 20.9991 12.9789 21 13.5C21 15.0497 20.1009 16.5253 18.4688 17.6559C16.7503 18.8438 14.4534 19.5 12 19.5C9.54656 19.5 7.24969 18.8438 5.53125 17.6559C3.89906 16.5253 3 15.0497 3 13.5C3.00126 12.9806 3.10115 12.4662 3.29437 11.9841C3.44095 11.6389 3.31002 11.2385 2.98781 11.0466C2.46592 10.7354 2.18329 10.1402 2.27204 9.53908C2.36078 8.93799 2.80338 8.44982 3.39291 8.30276C3.98245 8.15571 4.60247 8.37882 4.96313 8.86781C5.18846 9.17734 5.61076 9.26746 5.94281 9.07687L5.97656 9.05625C7.63594 8.05312 9.77344 7.5 12 7.5C14.2247 7.5 16.3622 8.05312 18.0216 9.05625L18.0609 9.07969C18.3924 9.26627 18.811 9.17521 19.035 8.86781C19.3935 8.37467 20.0149 8.1476 20.6069 8.2934C21.1989 8.43919 21.6438 8.92882 21.7323 9.53206C21.8209 10.1353 21.5355 10.7321 21.0103 11.0419H21.0122ZM8.25 13.5C7.42157 13.5 6.75 12.8284 6.75 12C6.75 11.1716 7.42157 10.5 8.25 10.5C9.07843 10.5 9.75 11.1716 9.75 12C9.75 12.8284 9.07843 13.5 8.25 13.5ZM17.25 12C17.25 12.8284 16.5784 13.5 15.75 13.5C14.9216 13.5 14.25 12.8284 14.25 12C14.25 11.1716 14.9216 10.5 15.75 10.5C16.5784 10.5 17.25 11.1716 17.25 12ZM15.6628 16.1484C15.7561 16.3242 15.7758 16.5299 15.7174 16.7201C15.659 16.9104 15.5274 17.0696 15.3516 17.1628C13.256 18.2765 10.744 18.2765 8.64844 17.1628C8.41164 17.0372 8.25983 16.7948 8.25021 16.5269C8.24058 16.2591 8.37459 16.0064 8.60177 15.8641C8.82894 15.7219 9.11476 15.7116 9.35156 15.8372C11.0075 16.7175 12.9925 16.7175 14.6484 15.8372C14.8242 15.7439 15.0299 15.7242 15.2201 15.7826C15.4104 15.841 15.5696 15.9726 15.6628 16.1484Z" fill="#0D141C"/>
</svg>
