<svg width="20" height="20" viewBox="0 0 20 20" fill="none" xmlns="http://www.w3.org/2000/svg">
<path fill-rule="evenodd" clip-rule="evenodd" d="M15.5856 11.5787L12.5856 10.0787C12.3453 9.95897 12.0592 9.97685 11.8356 10.1256L10.4584 11.0444C9.82624 10.6968 9.30598 10.1766 8.95844 9.54438L9.87719 8.16719C10.026 7.94361 10.0438 7.65755 9.92406 7.41719L8.42406 4.41719C8.29723 4.16104 8.03583 3.99926 7.75 4C5.67893 4 4 5.67893 4 7.75C4.00517 12.3042 7.69579 15.9948 12.25 16C14.3211 16 16 14.3211 16 12.25C16.0002 11.9658 15.8398 11.7059 15.5856 11.5787ZM12.25 14.5C8.52379 14.4959 5.50413 11.4762 5.5 7.75C5.4997 6.67735 6.25664 5.75363 7.30844 5.54313L8.38469 7.69938L7.46875 9.0625C7.32974 9.27102 7.30407 9.53518 7.40031 9.76656C7.93692 11.0419 8.95152 12.0565 10.2269 12.5931C10.459 12.6937 10.7262 12.6704 10.9375 12.5312L12.3072 11.6181L14.4634 12.6944C14.2513 13.7475 13.3243 14.5037 12.25 14.5ZM10 0.25C6.57597 0.249253 3.40249 2.04466 1.63954 4.97997C-0.123413 7.91527 -0.217421 11.5602 1.39188 14.5825L0.327812 17.7747C0.148045 18.3137 0.288308 18.9081 0.69011 19.3099C1.09191 19.7117 1.68626 19.852 2.22531 19.6722L5.4175 18.6081C8.99938 20.5133 13.3867 20.0013 16.4336 17.3225C19.4806 14.6438 20.5503 10.3582 19.1197 6.56183C17.689 2.76543 14.057 0.251664 10 0.25ZM10 18.25C8.54967 18.251 7.12478 17.8691 5.86938 17.1428C5.68344 17.035 5.46018 17.0121 5.25625 17.08L1.75 18.25L2.91906 14.7437C2.98723 14.5399 2.9647 14.3167 2.85719 14.1306C0.987404 10.8979 1.52233 6.8124 4.16133 4.17005C6.80034 1.52772 10.8852 0.98763 14.1202 2.85333C17.3553 4.71903 18.9336 8.52517 17.9682 12.1327C17.0028 15.7402 13.7345 18.2494 10 18.25Z" fill="#0D141C"/>
</svg>
