<svg width="22" height="18" viewBox="0 0 22 18" fill="none" xmlns="http://www.w3.org/2000/svg">
<path fill-rule="evenodd" clip-rule="evenodd" d="M14.4163 8.37562L9.91625 5.37562C9.68605 5.22204 9.38998 5.2077 9.14601 5.33831C8.90204 5.46892 8.74982 5.72327 8.75 6V12C8.74982 12.2767 8.90204 12.5311 9.14601 12.6617C9.38998 12.7923 9.68605 12.778 9.91625 12.6244L14.4163 9.62438C14.6252 9.48533 14.7507 9.25098 14.7507 9C14.7507 8.74902 14.6252 8.51467 14.4163 8.37562ZM10.25 10.5984V7.40625L12.6481 9L10.25 10.5984ZM20.9684 3.5175C20.7892 2.81636 20.2837 2.24422 19.61 1.98C16.3963 0.73875 11.2812 0.75 11 0.75C10.7188 0.75 5.60375 0.73875 2.39 1.98C1.71628 2.24422 1.21077 2.81636 1.03156 3.5175C0.78875 4.45312 0.5 6.16313 0.5 9C0.5 11.8369 0.78875 13.5469 1.03156 14.4825C1.2105 15.184 1.71605 15.7565 2.39 16.0209C5.46875 17.2087 10.2875 17.25 10.9381 17.25H11.0619C11.7125 17.25 16.5341 17.2087 19.61 16.0209C20.2839 15.7565 20.7895 15.184 20.9684 14.4825C21.2113 13.545 21.5 11.8369 21.5 9C21.5 6.16313 21.2113 4.45312 20.9684 3.5175ZM19.5163 14.1112C19.4583 14.3446 19.292 14.536 19.0691 14.6259C16.1019 15.7716 11.0553 15.7509 11.0066 15.7509H11C10.9494 15.7509 5.90656 15.7697 2.9375 14.6259C2.71456 14.536 2.54827 14.3446 2.49031 14.1112C2.2625 13.2553 2 11.6784 2 9C2 6.32156 2.2625 4.74469 2.48375 3.89344C2.54064 3.6587 2.70709 3.46572 2.93094 3.375C5.79219 2.26969 10.5866 2.25 10.9794 2.25H11.0047C11.0553 2.25 16.1028 2.23312 19.0672 3.375C19.2901 3.46497 19.4564 3.65637 19.5144 3.88969C19.7375 4.74469 20 6.32156 20 9C20 11.6784 19.7375 13.2553 19.5163 14.1066V14.1112Z" fill="#0D141C"/>
</svg>
