<svg width="22" height="19" viewBox="0 0 22 19" fill="none" xmlns="http://www.w3.org/2000/svg">
<path fill-rule="evenodd" clip-rule="evenodd" d="M21.2075 0.455312C20.9707 0.250819 20.6401 0.194166 20.3487 0.308125L1.34938 7.74344C0.796234 7.95853 0.451891 8.51338 0.504683 9.10451C0.557475 9.69565 0.994686 10.1807 1.57719 10.2944L6.5 11.2609V16.75C6.49802 17.3618 6.86959 17.9128 7.4375 18.1403C8.00458 18.3719 8.65559 18.2332 9.07906 17.7906L11.4528 15.3288L15.2188 18.625C15.4905 18.866 15.8409 18.9994 16.2041 19C16.3632 18.9999 16.5214 18.9749 16.6728 18.9259C17.1764 18.7662 17.5572 18.351 17.6731 17.8356L21.4784 1.28125C21.5478 0.977019 21.4436 0.659345 21.2075 0.455312ZM15.4756 3.83031L7.07656 9.84531L2.42656 8.93312L15.4756 3.83031ZM8 16.75V12.2987L10.3241 14.3369L8 16.75ZM16.2059 17.5L8.45469 10.7031L19.6109 2.70719L16.2059 17.5Z" fill="#0D141C"/>
</svg>
