<svg width="24" height="18" viewBox="0 0 24 18" fill="none" xmlns="http://www.w3.org/2000/svg">
<path fill-rule="evenodd" clip-rule="evenodd" d="M9.75 10.125C9.75 10.7463 9.24632 11.25 8.625 11.25C8.00368 11.25 7.5 10.7463 7.5 10.125C7.5 9.50368 8.00368 9 8.625 9C9.24632 9 9.75 9.50368 9.75 10.125ZM15.375 9C14.7537 9 14.25 9.50368 14.25 10.125C14.25 10.7463 14.7537 11.25 15.375 11.25C15.9963 11.25 16.5 10.7463 16.5 10.125C16.5 9.50368 15.9963 9 15.375 9ZM22.3547 15.0844L16.0734 17.8697C15.6917 18.0394 15.2569 18.044 14.8716 17.8826C14.4863 17.7211 14.1848 17.4077 14.0381 17.0166L13.2778 14.9541C12.8578 14.9822 12.4319 14.9966 12 14.9972C11.5681 14.9978 11.1422 14.9834 10.7222 14.9541L9.96187 17.0166C9.81502 17.4076 9.51344 17.7207 9.12825 17.8822C8.74305 18.0436 8.30832 18.0391 7.92656 17.8697L1.64531 15.0844C0.975771 14.7916 0.616389 14.0574 0.795937 13.3491L3.5625 2.4375C3.7117 1.85761 4.19014 1.42113 4.78125 1.32562L8.16187 0.769687C8.934 0.645499 9.67442 1.12722 9.87375 1.88344L10.1794 3.08719C10.775 3.02906 11.3819 3 12 3C12.6181 3 13.2244 3.02906 13.8188 3.08719L14.1244 1.88344C14.3233 1.12694 15.064 0.645041 15.8363 0.769687L19.2188 1.32562C19.8099 1.42113 20.2883 1.85761 20.4375 2.4375L23.2059 13.3481C23.3857 14.0573 23.0254 14.7922 22.3547 15.0844ZM21.75 13.7138L18.9816 2.8125C18.9816 2.8125 18.9816 2.8125 18.9741 2.8125L15.5934 2.25C15.5885 2.24715 15.5824 2.24715 15.5775 2.25L15.3122 3.29437C15.7809 3.3825 16.2497 3.4875 16.7025 3.615C17.0721 3.70921 17.3121 4.06579 17.2603 4.44366C17.2085 4.82153 16.8813 5.10033 16.5 5.09156C16.4315 5.09137 16.3634 5.08191 16.2975 5.06344C14.8968 4.68336 13.4513 4.49384 12 4.5C10.5487 4.49354 9.10322 4.68274 7.7025 5.0625C7.442 5.14303 7.15832 5.07585 6.96162 4.88704C6.76491 4.69822 6.68617 4.41753 6.75597 4.15396C6.82578 3.89038 7.03312 3.68545 7.2975 3.61875C7.74938 3.49125 8.21438 3.38625 8.68688 3.29812L8.42156 2.25C8.42156 2.25 8.42156 2.25 8.41031 2.25L5.02594 2.80594C5.02318 2.80518 5.02026 2.80518 5.0175 2.80594L2.25 13.7184L8.53125 16.5C8.53768 16.5035 8.54545 16.5035 8.55188 16.5L9.1875 14.7862C8.55065 14.6888 7.92016 14.5536 7.29938 14.3813C6.91509 14.2585 6.69678 13.8537 6.80528 13.4651C6.91377 13.0766 7.31019 12.8434 7.7025 12.9375C9.10313 13.3177 10.5487 13.5069 12 13.5C13.4513 13.5069 14.8969 13.3177 16.2975 12.9375C16.6964 12.8257 17.1105 13.0584 17.2223 13.4573C17.3342 13.8563 17.1014 14.2703 16.7025 14.3822C16.0811 14.5543 15.45 14.6892 14.8125 14.7862L15.4453 16.5C15.4515 16.5033 15.4589 16.5033 15.465 16.5L21.75 13.7138Z" fill="#0D141C"/>
</svg>
