<svg width="22" height="21" viewBox="0 0 22 21" fill="none" xmlns="http://www.w3.org/2000/svg">
<path fill-rule="evenodd" clip-rule="evenodd" d="M16.25 7.25C16.1769 7.25 16.1038 7.25 16.0316 7.25C16.6717 5.10066 15.8759 2.78202 14.0508 1.47879C12.2257 0.175568 9.7743 0.175568 7.94917 1.47879C6.12405 2.78202 5.32827 5.10066 5.96844 7.25C5.89531 7.25 5.82312 7.25 5.75 7.25C3.58837 7.25105 1.64833 8.57692 0.862119 10.5905C0.075904 12.6041 0.604236 14.8937 2.19324 16.3593C3.78225 17.8248 6.10709 18.1665 8.05062 17.2203L7.28187 19.7844C7.21372 20.0114 7.25692 20.2573 7.39839 20.4476C7.53986 20.6378 7.76294 20.7499 8 20.75H14C14.2371 20.7499 14.4601 20.6378 14.6016 20.4476C14.7431 20.2573 14.7863 20.0114 14.7181 19.7844L13.9494 17.2203C15.8929 18.1665 18.2178 17.8248 19.8068 16.3593C21.3958 14.8937 21.9241 12.6041 21.1379 10.5905C20.3517 8.57692 18.4116 7.25105 16.25 7.25ZM16.25 16.25C14.9889 16.2498 13.8124 15.6157 13.1187 14.5625C12.9132 14.2533 12.5124 14.1411 12.1761 14.2985C11.8399 14.4559 11.6695 14.8357 11.7753 15.1916L12.9941 19.2472H9.00969L10.2284 15.1916C10.341 14.8329 10.1708 14.4464 9.83019 14.2874C9.48962 14.1283 9.08393 14.246 8.88125 14.5625C7.80431 16.1936 5.65513 16.724 3.94297 15.7812C2.23082 14.8384 1.52995 12.7386 2.33256 10.9564C3.13517 9.17426 5.17206 8.30743 7.01281 8.96469C7.3179 9.07376 7.65853 8.9746 7.8574 8.71882C8.05627 8.46304 8.06841 8.10847 7.8875 7.83969C6.83646 6.27565 7.10932 4.17456 8.52497 2.93085C9.94063 1.68715 12.0594 1.68715 13.475 2.93085C14.8907 4.17456 15.1635 6.27565 14.1125 7.83969C13.9316 8.10847 13.9437 8.46304 14.1426 8.71882C14.3415 8.9746 14.6821 9.07376 14.9872 8.96469C16.3931 8.46736 17.9601 8.85037 18.9781 9.94017C19.9961 11.03 20.2716 12.6194 19.6798 13.9882C19.088 15.3571 17.7413 16.2451 16.25 16.25Z" fill="#0D141C"/>
</svg>
