<svg width="24" height="19" viewBox="0 0 24 19" fill="none" xmlns="http://www.w3.org/2000/svg">
<path fill-rule="evenodd" clip-rule="evenodd" d="M23.0625 6.25594L17.8125 0.255938C17.6705 0.0937512 17.4656 0.000509739 17.25 0H6.75C6.53443 0.000509739 6.32951 0.0937512 6.1875 0.255938L0.9375 6.25594C0.683778 6.54562 0.690666 6.98038 0.953438 7.26188L11.4534 18.5119C11.5953 18.6639 11.7939 18.7503 12.0019 18.7503C12.2098 18.7503 12.4085 18.6639 12.5503 18.5119L23.0503 7.26188C23.312 6.97941 23.3173 6.54466 23.0625 6.25594ZM20.8472 6H16.875L13.5 1.5H16.9097L20.8472 6ZM6.99188 7.5L9.81656 14.5622L3.22594 7.5H6.99188ZM15.3919 7.5L12 15.9806L8.60812 7.5H15.3919ZM9 6L12 1.99969L15 6H9ZM17.0081 7.5H20.7741L14.1834 14.5622L17.0081 7.5ZM7.09031 1.5H10.5L7.125 6H3.15281L7.09031 1.5Z" fill="#0D141C"/>
</svg>
