<svg width="17" height="18" viewBox="0 0 17 18" fill="none" xmlns="http://www.w3.org/2000/svg">
<path fill-rule="evenodd" clip-rule="evenodd" d="M16.1316 16.0578L12.2199 12.1469C14.5752 9.3192 14.2898 5.13911 11.5721 2.65779C8.85431 0.176469 4.66557 0.271665 2.06334 2.87389C-0.538882 5.47612 -0.634078 9.66485 1.84724 12.3826C4.32856 15.1004 8.50865 15.3858 11.3363 13.0305L15.2473 16.9422C15.4915 17.1864 15.8874 17.1864 16.1316 16.9422C16.3759 16.698 16.3759 16.302 16.1316 16.0578ZM1.31445 7.75C1.31445 4.6434 3.83285 2.125 6.93945 2.125C10.0461 2.125 12.5645 4.6434 12.5645 7.75C12.5645 10.8566 10.0461 13.375 6.93945 13.375C3.83428 13.3716 1.3179 10.8552 1.31445 7.75Z" fill="#0D141C"/>
</svg>
