<svg width="17" height="21" viewBox="0 0 17 21" fill="none" xmlns="http://www.w3.org/2000/svg">
<path fill-rule="evenodd" clip-rule="evenodd" d="M8.5 4.5C6.42893 4.5 4.75 6.17893 4.75 8.25C4.75 10.3211 6.42893 12 8.5 12C10.5711 12 12.25 10.3211 12.25 8.25C12.25 6.17893 10.5711 4.5 8.5 4.5ZM8.5 10.5C7.25736 10.5 6.25 9.49264 6.25 8.25C6.25 7.00736 7.25736 6 8.5 6C9.74264 6 10.75 7.00736 10.75 8.25C10.75 9.49264 9.74264 10.5 8.5 10.5ZM8.5 0C3.94579 0.00516641 0.255167 3.69579 0.25 8.25C0.25 11.1938 1.61031 14.3138 4.1875 17.2734C5.34552 18.6108 6.64886 19.8151 8.07344 20.8641C8.33177 21.045 8.67573 21.045 8.93406 20.8641C10.356 19.8147 11.6568 18.6104 12.8125 17.2734C15.3859 14.3138 16.75 11.1938 16.75 8.25C16.7448 3.69579 13.0542 0.00516641 8.5 0ZM8.5 19.3125C6.95031 18.0938 1.75 13.6172 1.75 8.25C1.75 4.52208 4.77208 1.5 8.5 1.5C12.2279 1.5 15.25 4.52208 15.25 8.25C15.25 13.6153 10.0497 18.0938 8.5 19.3125Z" fill="#0D171C"/>
</svg>
