<svg width="20" height="20" viewBox="0 0 20 20" fill="none" xmlns="http://www.w3.org/2000/svg">
<path fill-rule="evenodd" clip-rule="evenodd" d="M18.3472 13.3556L13.9306 11.3766L13.9184 11.3709C13.4526 11.1717 12.9177 11.2211 12.4963 11.5022C12.4718 11.5183 12.4483 11.5359 12.4259 11.5547L10.1441 13.5C8.69844 12.7978 7.20594 11.3166 6.50375 9.88969L8.45187 7.57312C8.47062 7.54969 8.48844 7.52625 8.50531 7.50094C8.78032 7.0807 8.82677 6.55073 8.62906 6.08906V6.07781L6.64437 1.65375C6.38009 1.0439 5.746 0.680692 5.08625 0.76125C2.45833 1.10705 0.495249 3.34943 0.5 6C0.5 13.4438 6.55625 19.5 14 19.5C16.6506 19.5048 18.8929 17.5417 19.2388 14.9137C19.3195 14.2542 18.9567 13.6202 18.3472 13.3556ZM14 18C7.37558 17.9928 2.00723 12.6244 2 6C1.9927 4.10618 3.39195 2.50108 5.26906 2.25C5.26869 2.25374 5.26869 2.25751 5.26906 2.26125L7.23781 6.6675L5.3 8.98687C5.28033 9.00951 5.26246 9.03364 5.24656 9.05906C4.95961 9.49938 4.92405 10.0578 5.15281 10.5309C6.00219 12.2681 7.7525 14.0053 9.50844 14.8538C9.98515 15.0804 10.5459 15.0398 10.985 14.7469C11.0091 14.7307 11.0322 14.7131 11.0544 14.6944L13.3334 12.75L17.7397 14.7234C17.7397 14.7234 17.7472 14.7234 17.75 14.7234C17.502 16.6033 15.8962 18.0064 14 18Z" fill="#0D171C"/>
</svg>
