<svg width="21" height="21" viewBox="0 0 21 21" fill="none" xmlns="http://www.w3.org/2000/svg">
<path fill-rule="evenodd" clip-rule="evenodd" d="M19.47 4.70156L11.22 0.1875C10.7719 -0.0600809 10.2281 -0.0600809 9.78 0.1875L1.53 4.70344C1.05014 4.96599 0.751242 5.46894 0.75 6.01594V14.9822C0.751242 15.5292 1.05014 16.0321 1.53 16.2947L9.78 20.8106C10.2281 21.0582 10.7719 21.0582 11.22 20.8106L19.47 16.2947C19.9499 16.0321 20.2488 15.5292 20.25 14.9822V6.01687C20.2498 5.46887 19.9507 4.9646 19.47 4.70156ZM10.5 1.5L18.0319 5.625L15.2409 7.15312L7.70813 3.02812L10.5 1.5ZM10.5 9.75L2.96812 5.625L6.14625 3.885L13.6781 8.01L10.5 9.75ZM2.25 6.9375L9.75 11.0419V19.0847L2.25 14.9831V6.9375ZM18.75 14.9794L11.25 19.0847V11.0456L14.25 9.40406V12.75C14.25 13.1642 14.5858 13.5 15 13.5C15.4142 13.5 15.75 13.1642 15.75 12.75V8.58281L18.75 6.9375V14.9784V14.9794Z" fill="#0D171C"/>
</svg>
